<svg xmlns="http://www.w3.org/2000/svg" width="225" height="225" viewBox="0 0 225 225" version="1.1">
	<path d="M 66.506 55.999 C 42.309 69.170, 21.947 80.720, 21.256 81.665 C 18.420 85.543, 20.912 91.885, 25.893 93.466 C 28.682 94.351, 30.240 93.585, 73.346 70.134 C 94.711 58.510, 112.370 49, 112.589 49 C 112.808 49, 131.759 58.975, 154.701 71.167 C 181.907 85.624, 197.441 93.333, 199.366 93.333 C 203.608 93.333, 207.398 88.740, 206.570 84.600 C 206.232 82.910, 205.403 81.016, 204.728 80.391 C 202.352 78.193, 114.076 32, 112.299 32.025 C 111.310 32.039, 90.703 42.827, 66.506 55.999 M 30 109.694 C 26.122 111.080, 26 112.297, 26 149.691 L 26 186 32.500 186 L 39 186 39 177 L 39 168 111.500 168 L 184 168 184 177 L 184 186 191.500 186 L 199 186 199 156.455 L 199 126.909 196.434 124.343 C 194.356 122.265, 193.264 121.897, 190.697 122.411 C 185.054 123.539, 184.533 124.827, 184.168 138.539 L 183.837 151.013 111.668 150.757 L 39.500 150.500 39.228 131.805 L 38.956 113.111 36.343 111.055 C 33.682 108.962, 32.661 108.743, 30 109.694 M 48.110 127.396 C 39.159 132.357, 43.111 146, 53.500 146 C 57.500 146, 60.814 143.911, 62.521 140.315 C 66.740 131.424, 56.846 122.554, 48.110 127.396 M 96.342 127.426 C 78.769 130.746, 68.625 136.317, 65.707 144.250 C 65.098 145.904, 68.221 146, 122.531 146 C 186.217 146, 182.917 146.392, 176.899 139.538 C 173.099 135.209, 163.990 130.797, 154 128.445 C 143.976 126.085, 106.906 125.430, 96.342 127.426" stroke="none" fill="#000000" fill-rule="evenodd"/>
</svg>