<?xml version="1.0" encoding="UTF-8"?>
<!DOCTYPE svg PUBLIC "-//W3C//DTD SVG 1.1//EN" "http://www.w3.org/Graphics/SVG/1.1/DTD/svg11.dtd">
<svg version="1.1" id="Layer_1" xmlns="http://www.w3.org/2000/svg" xmlns:xlink="http://www.w3.org/1999/xlink" x="0px" y="0px" width="24px" height="24px" viewBox="0 0 24 24" enable-background="new 0 0 24 24" xml:space="preserve">
  <g id="main">
    <g id="icon">
      <path d="M7.666,14.02L7.234,14.34L6.469,14.67L5.772,15.03L5.144,15.42L4.575,15.84L4.072,16.28L3.622,16.74L2.888,17.68L2.347,18.63L1.975,19.53L1.747,20.36L1.644,21.06L1.631,21.91L15.74,21.91L15.74,21.73L15.74,19.87L15.74,16.52L15.24,16.12L14.79,15.66L14.41,15.14L14.09,14.58L13.83,13.96L13.74,13.64L13.68,13.59L13.05,14.11L12.4,14.49L11.71,14.73L11.01,14.81L10.3,14.73L9.609,14.49L8.947,14.1L8.325,13.58z" fill="#ffffff" opacity="0.5"/>
      <path d="M6.628,8.234L6.716,9.303L6.972,10.36L7.375,11.38L7.909,12.3L8.559,13.09L8.919,13.43L9.303,13.71L9.703,13.94L10.13,14.11L10.56,14.22L11.01,14.26L11.45,14.22L11.89,14.11L12.31,13.94L12.71,13.71L13.09,13.43L13.45,13.09L13.59,12.93L13.54,12.62L13.5,11.89L13.57,10.99L13.77,10.14L14.09,9.347L14.53,8.619L15.07,7.975L15.35,7.734L15.32,7.394L6.694,7.394z" fill="#ffffff" opacity="0.5"/>
      <path d="M6.7,14.42L5.884,14.76L5.15,15.13L4.491,15.53L3.906,15.95L3.391,16.39L2.938,16.84L2.213,17.78L1.691,18.71L1.347,19.61L1.141,20.45L1.044,21.18L1,21.69L1.019,21.81L1.084,21.91L1.188,21.98L1.316,22L5.256,22L5.256,20.48L2.819,20.48L2.972,19.92L3.197,19.34L3.503,18.75L3.9,18.18L4.397,17.62L5.006,17.08L5.741,16.58L6.606,16.12L6.925,15.85L7.319,15.39L7.606,14.89L7.65,14.68L7.603,14.53L7.306,14.17z" fill="#7b7b7b"/>
      <path d="M6.281,14.38L7.231,17.96L6.725,18.24L6.325,18.67L6.066,19.19L5.972,19.78L5.972,22L7.403,22L7.403,19.78L7.447,19.56L7.563,19.38L7.734,19.26L7.947,19.22L14.02,19.22L14.23,19.26L14.4,19.38L14.52,19.56L14.56,19.78L14.56,22L15.74,22L15.74,21.73L15.74,19.87L15.74,18.87L15.64,18.67L15.24,18.24L14.73,17.96L15.22,16.1L14.79,15.66L14.41,15.14L14.13,14.65L13.29,17.82L8.675,17.82L7.669,14.03z" fill="#6485c3"/>
      <path d="M5.684,8.15L5.784,9.263L6.069,10.38L6.522,11.46L7.131,12.45L7.534,12.95L7.969,13.39L8.425,13.77L8.906,14.08L9.403,14.33L9.919,14.51L10.44,14.61L10.98,14.65L11.52,14.61L12.05,14.51L12.56,14.33L13.06,14.08L13.54,13.77L13.73,13.61L13.65,13.31L13.54,12.62L13.5,11.89L13.53,11.57L13,12.21L12.38,12.75L12.05,12.95L11.7,13.1L11.34,13.2L10.98,13.23L10.62,13.2L10.26,13.1L9.919,12.95L9.584,12.75L8.959,12.21L8.409,11.53L7.95,10.74L7.597,9.888L7.375,9.013L7.297,8.15L7.347,7.509L5.725,7.509M14.67,8.15L14.63,8.488L15.07,7.975L15.61,7.509L14.62,7.509z" fill="#7b7b7b"/>
      <path d="M10.35,0.8625L9.856,0.9531L9.372,1.091L8.456,1.506L7.638,2.088L7.275,2.438L6.947,2.825L6.659,3.25L6.416,3.706L6.222,4.194L6.075,4.709L5.988,5.256L5.956,5.825L5.956,5.844L5.922,6.172L5.831,6.409L5.7,6.581L5.55,6.7L5.266,6.856L5.166,6.931L5.119,7.025L5.138,7.238L5.241,7.347L5.413,7.388L5.631,7.394L15.76,7.394L16.44,6.969L16.73,6.85L16.46,6.7L16.31,6.581L16.18,6.409L16.09,6.172L16.06,5.844L16.06,5.831L16.06,5.816L16.03,5.3L15.96,4.803L15.67,3.878L15.22,3.053L14.63,2.341L13.92,1.75L13.13,1.294L12.27,0.9844L11.38,0.8344L10.86,0.825z" fill="#ffffff"/>
      <path d="M10.21,0.05313L9.616,0.1656L9.034,0.3375L8.472,0.5688L7.938,0.8563L7.431,1.2L6.959,1.594L6.544,2.016L6.178,2.459L5.866,2.928L5.606,3.419L5.403,3.934L5.256,4.475L5.169,5.047L5.138,5.644L5.138,5.663L5.119,5.819L4.994,5.888L4.606,6.15L4.416,6.397L4.306,6.741L4.303,7.053L4.356,7.309L4.559,7.656L4.825,7.875L5.116,7.988L5.631,8.034L15.02,8.034L15.07,7.975L15.71,7.422L16.44,6.969L16.68,6.869L17.26,6.631L17.63,6.509L17.6,6.397L17.41,6.15L17.02,5.888L16.89,5.819L16.88,5.663L16.88,5.631L16.84,5.016L16.75,4.428L16.6,3.878L16.4,3.356L16.15,2.872L15.86,2.422L15.53,2.009L15.16,1.631L14.33,0.9906L13.41,0.5031L12.44,0.175L11.43,0.01563L10.82,0.003125M12.04,1.769L12.74,1.997L13.4,2.338L14,2.788L14.51,3.347L14.9,4.009L15.15,4.772L15.24,5.631L15.24,5.663L15.27,6.059L15.36,6.391L6.653,6.391L6.741,6.059L6.775,5.663L6.775,5.644L6.859,4.816L7.109,4.075L7.516,3.409L8.072,2.8L8.781,2.263L9.578,1.888L10.43,1.681L11.31,1.653z" fill="#f1876b"/>
      <path d="M9.475,0.5344L9.322,0.6344L9.219,0.7781L9.181,0.9563L9.181,3.572L9.219,3.747L9.322,3.894L9.475,3.991L9.663,4.028L9.85,3.991L9.994,3.894L10.07,3.747L10.05,3.572L10.05,0.9563L10.07,0.7781L9.994,0.6344L9.85,0.5344L9.663,0.5M12.15,0.5344L12.01,0.6344L11.93,0.7781L11.95,0.9563L11.95,3.572L11.93,3.747L12.01,3.894L12.15,3.991L12.34,4.028L12.53,3.991L12.68,3.894L12.78,3.747L12.82,3.572L12.82,0.9563L12.78,0.7781L12.68,0.6344L12.53,0.5344L12.34,0.5z" fill="#f1876b"/>
    </g>
    <g id="overlay">
      <path d="M23.9628,11.8954c0.0002,1.6434,-0.7505,3.1062,-2.2402,3.7576l0.0006,4.217l-0.0025,1.9149l0.0001,0.7477c0.0001,0.8105,-0.6644,1.4675,-1.4843,1.4674l-1.5125,-0.0002c-0.8198,-0.0001,-1.4846,-0.6573,-1.4847,-1.4678l-0.0001,-0.8021l0.0025,-1.8605l-0.0006,-4.217c-1.4899,-0.6519,-2.241,-2.1148,-2.2412,-3.7582c-0.0002,-1.7413,1.0208,-3.2834,2.7253,-3.8373l0.175,-0.0569l0.0004,2.9615c0.0001,0.8946,0.5956,1.6645,1.4995,1.7067c0.9651,0.0451,1.6617,-0.7151,1.6615,-1.6593l-0.0004,-3.0084l0.175,0.0569C22.9411,8.6117,23.9626,10.1541,23.9628,11.8954z" fill="#7b7b7b"/>
    </g>
  </g>
</svg>
