<?xml version="1.0" encoding="UTF-8"?>
<!DOCTYPE svg PUBLIC "-//W3C//DTD SVG 1.1//EN" "http://www.w3.org/Graphics/SVG/1.1/DTD/svg11.dtd">
<svg version="1.1" id="Layer_1" xmlns="http://www.w3.org/2000/svg" xmlns:xlink="http://www.w3.org/1999/xlink" x="0px" y="0px" width="24px" height="24px" viewBox="0 0 24 24" enable-background="new 0 0 24 24" xml:space="preserve">
  <g id="icon">
    <path d="M22.12,5H1.88c-0.484,0,-0.88,0.396,-0.88,0.88v14.11c0,0.5555,0.4545,1.01,1.01,1.01h19.98c0.5555,0,1.01,-0.4545,1.01,-1.01V5.88C23,5.396,22.604,5,22.12,5zM14.25,8h-4.5c-0.4142,0,-0.75,-0.3358,-0.75,-0.75s0.3358,-0.75,0.75,-0.75h4.5c0.4142,0,0.75,0.3358,0.75,0.75S14.6642,8,14.25,8z" fill="#CCD0D9"/>
    <path d="M14.5,9.5h6" fill="#536880" stroke="#536880" stroke-width="1" stroke-linecap="round" stroke-miterlimit="1"/>
    <path d="M14.5,11.5h6M14.5,13.5h6M16.5,18.5h4" fill="none" stroke="#8E949C" stroke-width="1" stroke-linecap="round" stroke-miterlimit="1"/>
    <path d="M22.12,5H18.5l-8,16h11.49c0.5555,0,1.01,-0.4545,1.01,-1.01V5.88C23,5.396,22.604,5,22.12,5z" fill="#231F20" opacity="0.06"/>
    <path d="M11.38,19H3.62c-0.3424,0,-0.62,-0.2776,-0.62,-0.62V9.6c0,-0.3424,0.2776,-0.62,0.62,-0.62h7.76c0.3424,0,0.62,0.2776,0.62,0.62v8.78C12,18.7224,11.7224,19,11.38,19z" fill="#F6F7FB"/>
    <g>
      <path d="M9.7,15.1874c-0.1,-0.0179,-0.1266,-0.0354,-0.1976,-0.0523c-0.2896,-0.0688,-0.548,-0.1725,-0.8031,-0.3074c-0.0478,-0.0252,-0.0811,-0.0786,-0.101,-0.115c-0.0882,-0.1899,-0.0383,-0.5549,0.0149,-0.8268c0.0002,-0.0129,0.0035,-0.0262,0.0086,-0.0392c-0.0805,0.104,-0.2697,0.263,-0.2805,0.2703c-0.0802,0.0541,-0.1593,0.112,-0.2447,0.1591c-0.1441,0.0795,-0.2889,0.1676,-0.4619,0.1951c-0.0429,0.0068,-0.0736,0.0095,-0.1441,0.009c-0.0475,0.0006,-0.0943,-0.0022,-0.1372,-0.009c-0.173,-0.0274,-0.3144,-0.1156,-0.4585,-0.1951c-0.0854,-0.0471,-0.163,-0.105,-0.2431,-0.1591c-0.0108,-0.0073,-0.1993,-0.1662,-0.2799,-0.2703c0.005,0.0131,0.0084,0.0264,0.0086,0.0392c0.0532,0.2719,0.1026,0.6368,0.0143,0.8268c-0.0198,0.0364,-0.0546,0.0898,-0.1023,0.115c-0.2551,0.1348,-0.5078,0.2386,-0.7974,0.3074c-0.071,0.0169,-0.0949,0.0344,-0.1949,0.0523v0.3604l2.2081,1.0007l-0.0064,-0.0006l-0.0026,0.0006l0.052,-0.0157L7.6452,16.5h-0.0044L9.7,15.5478V15.1874z" fill="#D6B1A3"/>
      <path d="M9.0923,12.4408c-0.07,-0.0198,-0.0939,0.0536,-0.1144,0.1029c-0.0348,0.0838,-0.0319,0.1691,-0.0689,0.2671c-0.0084,-0.0348,-0.0156,-0.0553,-0.0181,-0.0763c-0.0224,-0.1915,-0.0033,-0.3838,-0.032,-0.5746c-0.0319,-0.2127,-0.1161,-0.4495,-0.2584,-0.6277c-0.0912,-0.1142,-0.2151,-0.1631,-0.3726,-0.1399c-0.1934,0.0284,-0.4062,0.0535,-0.6001,0.0784c-0.045,0.0058,-0.1037,0.0101,-0.136,0.0116c-0.0323,-0.0014,-0.0861,-0.0058,-0.1311,-0.0116c-0.1939,-0.0249,-0.4043,-0.05,-0.5976,-0.0784c-0.1575,-0.0232,-0.2802,0.0257,-0.3714,0.1399c-0.1422,0.1782,-0.2258,0.4151,-0.2577,0.6277c-0.0287,0.1908,-0.0093,0.3831,-0.0317,0.5746c-0.0024,0.0209,-0.0273,-0.0037,-0.0273,-0.0037s-0.0577,-0.1034,-0.0925,-0.1872c-0.0205,-0.0493,-0.0444,-0.1227,-0.1144,-0.1029c-0.0786,0.0223,-0.0372,0.0933,-0.025,0.1463c0.0444,0.1939,0.0858,0.3883,0.1339,0.5814c0.0125,0.0501,0.0284,0.2035,0.0708,0.2078c0.0424,0.0043,0.0526,-0.0971,0.0822,-0.1191c0.0144,0.0844,0.0361,0.1595,0.0384,0.235c0.0062,0.1998,0.0997,0.3708,0.2087,0.5386c0.0063,0.0097,0.0123,0.0202,0.0174,0.031c0.1133,0.1047,0.3041,0.2836,0.5639,0.4224c0.154,0.0811,0.3073,0.1397,0.4851,0.1523c0.0178,0.0013,0.048,0.0019,0.048,0.0022c0,-0.0003,0.0352,-0.0009,0.0529,-0.0022c0.1778,-0.0126,0.336,-0.0712,0.49,-0.1523c0.2598,-0.1388,0.4506,-0.3177,0.5639,-0.4224c0.0051,-0.0108,0.0111,-0.0213,0.0174,-0.031c0.109,-0.1678,0.2025,-0.3388,0.2088,-0.5386c0.0024,-0.0755,0.024,-0.1506,0.0384,-0.235c0.0297,0.022,0.0398,0.1234,0.0822,0.1191c0.0424,-0.0043,0.0584,-0.1577,0.0708,-0.2078c0.0481,-0.1931,0.0566,-0.3876,0.101,-0.5814C9.1295,12.5341,9.1708,12.4631,9.0923,12.4408z" fill="#E6CBBF"/>
      <path d="M8.6,14.1082c-0.1,0.1061,-0.3147,0.2559,-0.5393,0.3759c-0.154,0.0811,-0.3251,0.1397,-0.503,0.1523c-0.0178,0.0013,-0.0594,0.0019,-0.0594,0.0022c0,-0.0003,-0.0335,-0.0009,-0.0513,-0.0022c-0.1778,-0.0126,-0.349,-0.0712,-0.503,-0.1523c-0.2332,-0.1246,-0.444,-0.281,-0.544,-0.3875v0.0658c0.1,0.1065,0.3092,0.3616,0.5424,0.4862c0.154,0.0811,0.3154,0.1397,0.4932,0.1523c0.0178,0.0013,0.0521,0.0019,0.0521,0.0022c0,-0.0003,0.0372,-0.0009,0.055,-0.0022c0.1778,-0.0126,0.3629,-0.0712,0.5169,-0.1523c0.2247,-0.12,0.4404,-0.3685,0.5404,-0.4746V14.1082z" fill="#8E725E" opacity="0.2"/>
      <path d="M11.1527,16.4087c-0.2265,-1.1005,-0.305,-0.8845,-2.3162,-1.5325c-0.9934,1.3957,-1.6885,1.3879,-2.6928,0c-2.0589,0.6788,-2.1178,0.5582,-2.3273,1.5319c-0.0559,0.3587,-0.0652,0.5091,0.0836,0.9065c0.1448,0.3868,3.0781,0.3907,3.0781,0.3907s0.3436,-0.1701,0.4783,-0.1701c0.0337,0,0,0,0,0c0.1683,0,0.5315,0.1703,0.5315,0.1703s2.9342,-0.008,3.0775,-0.3906C11.2142,16.9175,11.2086,16.7673,11.1527,16.4087z" fill-rule="evenodd" fill="#656D78"/>
      <polygon points="6.0428,14.9081 6.9853,17.7 7.995,17.7 8.9712,14.9081 7.4901,15.9179" fill="#F6F7FB" stroke-linejoin="miter"/>
      <polygon points="8.8702,15.253 7.507,15.6023 6.1436,15.2529 6.2447,15.5524 6.997,16.4246 7.507,15.7074 8.0169,16.4246 8.7428,15.5831" fill="#24282D" stroke-linejoin="miter" opacity="0.15"/>
      <polygon points="8.9712,14.9099 8.5557,14.6827 7.507,15.5653 6.4583,14.6827 6.0428,14.9099 6.2447,15.4845 7.0031,16.1937 7.507,15.6826 8.0109,16.1937 8.7692,15.4845" fill="#FFFFFF" stroke-linejoin="miter"/>
      <path d="M9.1001,11.4708c-0.0042,-0.1853,-0.1849,-0.527,-0.2649,-0.6148c-0.277,-0.3627,-0.8162,-0.5464,-1.3433,-0.5564c-0.5375,0.01,-1.0738,0.1937,-1.3508,0.5564c-0.08,0.0878,-0.2645,0.4295,-0.2686,0.6148c-0.0054,0.2425,-0.0343,0.4875,0.0424,0.7283c0.0297,0.0934,0.0287,0.1938,0.0527,0.2889c0.027,0.1069,0.0839,0.3029,0.1076,0.3043s0.0315,-0.0479,0.0329,-0.0615c0.0176,-0.1681,0.0189,-0.3046,0.0416,-0.4721c0.0382,-0.2821,0.0424,-0.3611,0.2123,-0.6184c0.0652,-0.0988,0.137,-0.2041,0.285,-0.2062c0.147,-0.0021,0.2949,0.0173,0.4415,0.0332c0.1119,0.0121,0.2226,0.0472,0.3337,0.0471c0.0232,0,0.0464,-0.0006,0.0696,-0.0015c0,0.0008,0.039,0.0014,0.0622,0.0015c0.1112,0.0002,0.2144,-0.035,0.3263,-0.0471c0.1467,-0.0158,0.2946,-0.0352,0.4416,-0.0332c0.148,0.0021,0.2198,0.1074,0.285,0.2062c0.1699,0.2574,0.1742,0.3363,0.2124,0.6184c0.0227,0.1675,0.0241,0.304,0.0417,0.4721c0.0014,0.0136,0.0094,0.0629,0.0332,0.0615c0.0238,-0.0015,0.0811,-0.1974,0.1081,-0.3043c0.024,-0.0951,0.0239,-0.1956,0.0536,-0.2889C9.1325,11.9583,9.1055,11.7133,9.1001,11.4708z" fill="#434A54"/>
      <polygon points="7.1199,17.7 7.3218,16.2544 7.1535,16.0534 7.4901,15.6836 7.8267,16.0541 7.6584,16.2543 7.8604,17.7" fill="#DB4453" stroke-linejoin="miter"/>
      <path d="M11.1469,16.4374c-0.1504,-0.672,-0.3469,-0.9165,-1.4469,-1.2438v-0.0061c-0.1,-0.0112,-0.0776,-0.0222,-0.1199,-0.033c-0.16,-0.0495,-0.3344,-0.1036,-0.5311,-0.1644c-0.1191,-0.0477,-0.2337,-0.1016,-0.3483,-0.1622c-0.0478,-0.0252,-0.0819,-0.0786,-0.1017,-0.115c-0.0686,-0.1476,-0.0537,-0.401,-0.0188,-0.6343c0.006,-0.0055,0.0128,-0.0116,0.0183,-0.0167c0.0051,-0.0108,0.0112,-0.0213,0.0175,-0.031c0.109,-0.1678,0.2026,-0.3388,0.2088,-0.5386c0.0024,-0.0755,0.024,-0.1506,0.0385,-0.235c0.0297,0.022,0.0398,0.1234,0.0823,0.1191c0.0424,-0.0043,0.0584,-0.1577,0.0708,-0.2078c0.0481,-0.1931,0.0566,-0.3876,0.101,-0.5814c0.0121,-0.053,0.0535,-0.124,-0.0251,-0.1463c-0.0461,-0.0131,-0.0722,0.0144,-0.0905,0.0487c0.0001,-0.0005,0.0003,-0.001,0.0004,-0.0015c0.024,-0.0951,0.0239,-0.1956,0.0536,-0.2889c0.0767,-0.2408,0.0497,-0.4858,0.0443,-0.7283c-0.0042,-0.1853,-0.1849,-0.5268,-0.2649,-0.6146C8.5581,10.4935,8.019,10.3,7.4918,10.3c-0.0006,0,0.0082,0,0.0082,0v7.4013c1.1,0.0007,3.4045,0.0521,3.571,-0.3617C11.2197,16.9696,11.2027,16.7712,11.1469,16.4374zM8.9374,12.7076c-0.0067,0.0331,-0.0148,0.0673,-0.0284,0.1032c-0.0023,-0.0094,-0.0044,-0.0176,-0.0065,-0.0252C8.9121,12.7733,8.9243,12.7444,8.9374,12.7076z" fill-rule="evenodd" fill="#44372E" opacity="0.1"/>
    </g>
    <path d="M13.54,1h-3.08c-0.254,0,-0.46,0.2059,-0.46,0.46v5.28c0,0.2541,0.206,0.46,0.46,0.46h3.08c0.254,0,0.46,-0.206,0.46,-0.46V1.46C14,1.2059,13.794,1,13.54,1zM12,4c-0.5523,0,-1,-0.4477,-1,-1c0,-0.5523,0.4477,-1,1,-1s1,0.4477,1,1C13,3.5523,12.5523,4,12,4z" fill="#536880"/>
  </g>
</svg>
