<?xml version="1.0" encoding="UTF-8"?>
<!DOCTYPE svg PUBLIC "-//W3C//DTD SVG 1.1//EN" "http://www.w3.org/Graphics/SVG/1.1/DTD/svg11.dtd">
<svg version="1.1" id="Layer_1" xmlns="http://www.w3.org/2000/svg" xmlns:xlink="http://www.w3.org/1999/xlink" x="0px" y="0px" width="24px" height="24px" viewBox="0 0 24 24" enable-background="new 0 0 24 24" xml:space="preserve">
  <g id="icon">
    <g>
      <path d="M21.7977,5.6H7.2023C6.9811,5.7,6.8,5.9865,6.8,6.2622v0.7421c3.5,0.0921,6.2681,2.9717,6.2681,6.4728c0,0.7811,-0.214,1.6228,-0.5279,2.5228H21.1c0.6694,0,1.1,-0.4299,1.1,-0.904V6.2622C22.2,5.9865,22.0189,5.7,21.7977,5.6z" fill="#E6E9EE"/>
      <path d="M12,9.8968v-0.2843c0,-0.3369,-0.2938,-0.6125,-0.6307,-0.6125h-0.105C11.5288,9.2769,11.8,9.5765,12,9.8968z" fill="#A38671"/>
      <path d="M20.7,9.425c0,-0.2347,-0.1903,-0.425,-0.425,-0.425h-5.85c-0.2347,0,-0.425,0.1903,-0.425,0.425v4.15c0,0.2347,0.1903,0.425,0.425,0.425h5.85c0.2347,0,0.425,-0.1903,0.425,-0.425V9.425z" fill="#4FC0E8"/>
      <path d="M12,9.9251v-0.4008c0,-0.2591,-0.2092,-0.5243,-0.3495,-0.5243h-0.3862C11.5365,9.2849,11.7831,9.5943,12,9.9251z" fill="#8E725E" opacity="0.65"/>
      <path d="M19.7296,5.7h-3.4343h-3.4343H9.4265H6.8v1.3051c0.7487,0.023,1.4653,0.1737,2.1294,0.4316c0.2984,-0.3088,0.4845,-0.7258,0.4845,-1.1842c0,0.9444,0.7791,1.7172,1.7235,1.7172c0.9444,0,1.7203,-0.7727,1.7203,-1.7172c0,0.9444,0.7743,1.7172,1.7188,1.7172s1.718,-0.7727,1.718,-1.7172c0,0.9444,0.7731,1.7172,1.7176,1.7172s1.7174,-0.7727,1.7174,-1.7172c0,0.9444,0.7202,1.7172,1.6646,1.7172c0.3126,0,0.606,-0.086,0.806,-0.2335V5.7H19.7296z" fill="#CCD0D9"/>
      <path d="M18.1909,4.8157L15.3312,16H21.3c0.4694,0,0.9,-0.4299,0.9,-0.904V4.943L18.1909,4.8157z" fill="#231F20" opacity="0.06"/>
      <g>
        <path d="M11.1,7.1111c0.935,0,1.7,-0.7727,1.7,-1.7172V4.4H9.4v0.9939C9.4,6.3384,10.165,7.1111,11.1,7.1111z" fill="#F6F7FB"/>
        <path d="M16.2,4.4v0.9939c0,0.9444,0.765,1.7172,1.7,1.7172s1.7,-0.7727,1.7,-1.7172V4.4H16.2z" fill="#F6F7FB"/>
      </g>
      <g>
        <path d="M7.179,7.0273c0.1987,0.0178,0.3947,0.0449,0.5878,0.0804C8.6709,7.0716,9.4,6.3156,9.4,5.3939V4.4H6v0.9939C6,6.1549,6.497,6.8036,7.179,7.0273z" fill="#5D9CEC"/>
        <path d="M19.6,4.4v0.9939c0,0.9444,0.765,1.7172,1.7,1.7172s1.7,-0.7727,1.7,-1.7172V4.4H19.6z" fill="#5D9CEC"/>
        <path d="M12.8,5.3939c0,0.9444,0.765,1.7172,1.7,1.7172s1.7,-0.7727,1.7,-1.7172V4.4h-3.4V5.3939z" fill="#5D9CEC"/>
      </g>
      <g>
        <polygon points="9.4,4.4 12.8,4.4 13.65,1 11.95,1" fill="#E6E9EE" stroke-linejoin="miter"/>
        <polygon points="17.05,1 15.35,1 16.2,4.4 19.6,4.4" fill="#E6E9EE" stroke-linejoin="miter"/>
      </g>
      <g>
        <polygon points="11.95,1 10.25,1 6,4.4 9.4,4.4" fill="#4B89DC" stroke-linejoin="miter"/>
        <polygon points="18.75,1 17.05,1 19.6,4.4 23,4.4" fill="#4B89DC" stroke-linejoin="miter"/>
        <polygon points="13.65,1 12.8,4.4 16.2,4.4 15.35,1" fill="#4B89DC" stroke-linejoin="miter"/>
      </g>
    </g>
    <g>
      <path d="M6.5545,8C3.5421,8,1.1,10.4421,1.1,13.4545C1.1,16.8636,5.8898,23,6.5545,23s5.4545,-6.1364,5.4545,-9.5455C12.0091,10.4421,9.567,8,6.5545,8zM6.5545,15.5c-1.1297,0,-2.0455,-0.9158,-2.0455,-2.0455s0.9158,-2.0455,2.0455,-2.0455S8.6,12.3249,8.6,13.4545S7.6842,15.5,6.5545,15.5z" fill="#ED5564"/>
      <path d="M8.6455,13.4545C8.6455,14.5842,7.7,15.5,6.6,15.5v7.5c0.6,0,5.4545,-6.1364,5.4545,-9.5455C12.0545,10.4421,9.6,8,6.6,8v3.4091C7.7,11.4091,8.6455,12.3249,8.6455,13.4545z" fill="#DB4453"/>
      <path d="M6.5545,10.0455c-1.8828,0,-3.4091,1.5263,-3.4091,3.4091c0,1.8828,1.5263,3.4091,3.4091,3.4091s3.4091,-1.5263,3.4091,-3.4091C9.9636,11.5718,8.4373,10.0455,6.5545,10.0455zM6.5545,15.5c-1.1297,0,-2.0455,-0.9158,-2.0455,-2.0455s0.9158,-2.0455,2.0455,-2.0455S8.6,12.3249,8.6,13.4545S7.6842,15.5,6.5545,15.5z" fill="#AD3849"/>
    </g>
  </g>
</svg>
