<?xml version="1.0" encoding="UTF-8"?>
<!DOCTYPE svg PUBLIC "-//W3C//DTD SVG 1.1//EN" "http://www.w3.org/Graphics/SVG/1.1/DTD/svg11.dtd">
<svg version="1.1" id="Layer_1" xmlns="http://www.w3.org/2000/svg" xmlns:xlink="http://www.w3.org/1999/xlink" x="0px" y="0px" width="24px" height="24px" viewBox="0 0 24 24" enable-background="new 0 0 24 24" xml:space="preserve">
  <g id="main">
    <g id="icon">
      <path d="M6.197,0.03125L5.719,0.2219L5.338,0.5625L5.091,1.013L5,1.538L5,6.5L8,6.5L8,1.519L7.963,1.178L7.853,0.8625L7.678,0.5781L7.441,0.3344L7.159,0.1563L6.853,0.04375L6.528,0M14.2,0.03125L13.72,0.2219L13.34,0.5625L13.09,1.013L13,1.538L13,6.5L16,6.5L16,1.519L15.96,1.178L15.85,0.8625L15.68,0.5781L15.44,0.3344L15.16,0.1563L14.85,0.04375L14.53,0z" fill="#eeac55"/>
      <path d="M2.134,16.11L1.722,16.23L1.422,16.38L1.122,16.6L0.8313,16.89L0.5656,17.28L0.3375,17.77L0.1594,18.37L0.04063,19.1L0,19.98L0,20.15L1.613,20.15L1.613,19.98L1.634,19.41L1.725,18.8L1.922,18.27L2.072,18.08L2.266,17.95L2.556,17.9L2.844,17.93L3.156,18.03L3.822,18.41L4.497,18.99L5.122,19.73L5.938,20.7L6.353,21.09L6.775,21.42L7.197,21.67L7.616,21.85L8.034,21.96L8.444,22L8.856,21.96L9.253,21.84L9.628,21.65L10,21.35L10.36,20.93L10.69,20.36L10.98,19.63L11.2,18.72L11.25,18.36L10.73,18.36L11.37,17.02L11.4,16.26L11.4,16.08L9.788,16.08L9.788,16.26L9.713,17.72L9.5,18.88L9.344,19.34L9.159,19.7L8.95,19.96L8.713,20.12L8.456,20.17L7.988,20.06L7.466,19.74L6.919,19.24L6.369,18.57L5.613,17.67L5.169,17.25L4.691,16.87L4.184,16.54L3.656,16.29L3.116,16.13L2.569,16.07z" fill="#6485c3"/>
      <path d="M4,11.85L4.091,12.75L4.35,13.58L4.759,14.34L5.303,15L5.963,15.54L6.719,15.95L7.553,16.21L8.45,16.3L11.71,16.3L15.38,8.5L17,8.5L17,5.95L4,5.95z" fill="#ffffff" opacity="0.5"/>
      <path d="M3,9.584L3.038,10.35L3.144,11.09L3.319,11.82L3.559,12.52L3.859,13.19L4.219,13.83L4.631,14.42L5.097,14.97L5.609,15.48L6.169,15.93L6.769,16.33L7.409,16.67L8.081,16.95L8.788,17.15L9.522,17.29L10.28,17.35L11.09,17.33L11.23,17.31L12.3,15.05L12.27,15.06L11.77,15.2L11.23,15.3L10.59,15.35L9.969,15.33L9.369,15.24L8.794,15.09L8.25,14.88L7.738,14.61L7.256,14.29L6.816,13.93L6.416,13.51L6.059,13.06L5.747,12.57L5.488,12.04L5.278,11.49L5.125,10.91L5.031,10.3L5,9.675L5,7L16,7L16,8.5L18,8.5L18,5L3,5z" fill="#7b7b7b"/>
      <path d="M13.98,9.909L13.76,10.03L13.6,10.2L13.5,10.43L13.25,11.06L12.85,11.58L12.32,11.98L11.69,12.23L11.46,12.33L11.28,12.49L11.17,12.71L11.13,12.96L11.21,13.29L11.42,13.54L11.71,13.69L12.05,13.69L12.57,13.52L13.06,13.29L13.16,13.23L14.66,10.03L14.56,9.947L14.22,9.869z" fill="#b7b7b7"/>
    </g>
    <g id="overlay">
      <path d="M20.2702,15.147h3.1965l-10.1074,8.5813c-0.1106,0.0914,-0.2605,-0.036,-0.2072,-0.1762l2.6445,-6.6894h-2.6963L16.3347,10H24L20.2702,15.147z" fill="#eeac55"/>
    </g>
  </g>
</svg>
