<?xml version="1.0" encoding="UTF-8"?>
<!DOCTYPE svg PUBLIC "-//W3C//DTD SVG 1.1//EN" "http://www.w3.org/Graphics/SVG/1.1/DTD/svg11.dtd">
<svg version="1.1" id="Layer_1" xmlns="http://www.w3.org/2000/svg" xmlns:xlink="http://www.w3.org/1999/xlink" x="0px" y="0px" width="24px" height="24px" viewBox="0 0 24 24" enable-background="new 0 0 24 24" xml:space="preserve">
  <g id="icon">
    <rect x="1.75" y="0.75" width="19.5" height="22.5" fill="#ffffff" opacity="0.5"/>
    <path d="M22,24H1V0h21V24zM3,22h17V2H3V22z" fill="#7b7b7b"/>
    <rect x="6" y="8" width="11" height="1" fill="#6485c3"/>
    <path d="M10,13H5v-1h5V13zM10,14H5v1h5V14zM10,16H5v1h5V16zM10,18H5v1h5V18z" fill="#6d6e71"/>
    <rect x="5" y="4" width="13" height="2" fill="#6485c3"/>
    <path d="M16.2989,20.9875h-1.5v-0.8123c-0.1254,-0.0106,-0.2457,-0.0263,-0.3606,-0.0469c-0.2841,-0.0513,-0.5509,-0.1283,-0.7929,-0.229c-0.2483,-0.1031,-0.483,-0.2356,-0.6968,-0.3935c-0.2262,-0.1666,-0.7244,-0.6339,-0.8517,-0.7595l1.0538,-1.0674c0.1576,0.1556,0.5727,0.5347,0.6881,0.6198c0.1171,0.0864,0.2454,0.1588,0.3823,0.2156c0.143,0.0595,0.3053,0.1058,0.4831,0.1379c0.0306,0.0055,0.0621,0.0104,0.0946,0.0148v-2.9397c-0.1504,-0.0448,-0.2979,-0.0914,-0.4413,-0.1397c-0.3085,-0.1039,-0.5897,-0.2409,-0.8357,-0.4072c-0.2785,-0.1883,-0.508,-0.426,-0.6823,-0.7066c-0.1881,-0.3026,-0.2912,-0.6649,-0.3064,-1.0767c-0.0125,-0.3341,0.0433,-0.6626,0.1656,-0.9762c0.1247,-0.3197,0.3181,-0.6064,0.5749,-0.8522c0.2457,-0.2353,0.5477,-0.4269,0.8975,-0.5695c0.1934,-0.079,0.4034,-0.1394,0.6278,-0.181v-0.8555h1.5v0.858c0.0899,0.0184,0.176,0.0404,0.2586,0.0662c0.2813,0.088,0.5138,0.1868,0.711,0.3023c0.0423,0.0248,0.0889,0.0484,0.1338,0.0716c0.1328,0.0684,0.27,0.139,0.3896,0.2446c0.075,0.059,0.3955,0.2843,0.6573,0.4646l-0.8509,1.2353c-0.5471,-0.3769,-0.7115,-0.5017,-0.7733,-0.5531c-0.0259,-0.0149,-0.0753,-0.0404,-0.1096,-0.0581c-0.0691,-0.0356,-0.1403,-0.0727,-0.2052,-0.1107c-0.0434,-0.0254,-0.111,-0.0599,-0.2114,-0.0991v2.1999c0.0954,0.027,0.1901,0.0543,0.2838,0.0818c0.3478,0.1023,0.668,0.2398,0.9519,0.4086c0.3226,0.192,0.5912,0.4408,0.7989,0.7397c0.2293,0.3308,0.3543,0.7383,0.3719,1.2116c0.0153,0.4129,-0.0471,0.8094,-0.1854,1.1785c-0.1406,0.3753,-0.3564,0.7121,-0.6414,1.001c-0.2798,0.2837,-0.6246,0.5141,-1.025,0.685c-0.1745,0.0745,-0.3597,0.1354,-0.5546,0.1826V20.9875zM16.2989,16.1495v2.3462c0.2052,-0.0917,0.3771,-0.2072,0.5117,-0.3437c0.1378,-0.1398,0.2375,-0.2948,0.3046,-0.4739c0.0693,-0.1849,0.099,-0.3801,0.091,-0.5966c-0.0047,-0.1254,-0.0267,-0.2987,-0.1052,-0.412c-0.0853,-0.1229,-0.1946,-0.2232,-0.3335,-0.3059C16.6283,16.2807,16.4711,16.209,16.2989,16.1495zM14.7989,12.3646c-0.0209,0.0074,-0.0414,0.0152,-0.0613,0.0234c-0.1744,0.071,-0.3178,0.1599,-0.4266,0.264c-0.0992,0.095,-0.1694,0.1976,-0.2147,0.3138c-0.048,0.123,-0.0689,0.2459,-0.0641,0.3756c0.0054,0.1458,0.0336,0.2635,0.0815,0.3407c0.0633,0.1018,0.1445,0.1854,0.2484,0.2556c0.1247,0.0844,0.2716,0.1567,0.4369,0.2153V12.3646zM16.7929,12.6239l0.0001,0.0001L16.7929,12.6239zM16.7928,12.6238C16.7928,12.6238,16.7928,12.6238,16.7928,12.6238C16.7928,12.6238,16.7928,12.6238,16.7928,12.6238zM17.798,11.5105c0.0027,0.0024,0.0054,0.0048,0.0081,0.0073C17.8038,11.5157,17.8011,11.5133,17.798,11.5105z" fill="#eeac55"/>
  </g>
</svg>
