<?xml version="1.0" encoding="UTF-8"?>
<!DOCTYPE svg PUBLIC "-//W3C//DTD SVG 1.1//EN" "http://www.w3.org/Graphics/SVG/1.1/DTD/svg11.dtd">
<svg version="1.1" id="Layer_1" xmlns="http://www.w3.org/2000/svg" xmlns:xlink="http://www.w3.org/1999/xlink" x="0px" y="0px" width="24px" height="24px" viewBox="0 0 24 24" enable-background="new 0 0 24 24" xml:space="preserve">
  <g id="icon">
    <path d="M21,23H2V1h19V23z" fill="#ffffff" opacity="0.5"/>
    <path d="M1,24V0h21v24H1zM20,22V2H3v20H20z" fill="#7b7b7b"/>
    <path d="M18,12H5v-1h13V12zM17,10H6V9h11V10z" fill="#b7b7b7"/>
    <path d="M18,8H5V4h13V8zM6,7h11V5H6V7z" fill="#eeac55"/>
    <path d="M6.3014,20c-0.2688,0,-0.5269,-0.017,-0.7673,-0.0505c-0.1786,-0.0249,-0.3311,-0.149,-0.3981,-0.3241c-0.0672,-0.1754,-0.0386,-0.3759,0.0747,-0.5232l0.1567,-0.2038c0.3291,-0.4225,0.8283,-0.8596,1.526,-1.3358l0.1264,-0.0862l-0.1263,-0.0864c-0.0739,-0.0506,-0.1401,-0.1118,-0.1965,-0.1819c-0.1338,-0.1661,-0.2725,-0.4608,-0.1728,-0.9214c0.2816,-1.3017,2.3499,-1.891,3.5576,-2.1264c0.5686,-0.1109,0.9626,-0.1603,1.2775,-0.1603c0.4418,0,0.7456,0.1005,0.956,0.3163c0.1197,0.1227,0.3093,0.3978,0.2351,0.861c-0.0841,0.525,-0.4794,0.8201,-0.7971,1.0573c-0.1621,0.121,-0.3148,0.2351,-0.4281,0.3681c-0.0947,0.1112,-0.2308,0.1749,-0.3732,0.1749c-0.1224,0,-0.2403,-0.0469,-0.332,-0.1321c-0.2064,-0.1921,-0.2248,-0.524,-0.0409,-0.7398c0.1882,-0.2208,0.4036,-0.3815,0.5937,-0.5234c0.0561,-0.0418,0.1289,-0.0963,0.1945,-0.1497l0.2391,-0.1946l-0.3041,0.01c-0.2479,0.0081,-0.597,0.0558,-1.0373,0.1416c-1.3503,0.2634,-2.4687,0.7611,-2.7195,1.2105l-0.0788,0.141l0.1568,0.0138c0.0533,0.0046,0.1187,0.0071,0.1941,0.0071c0.1413,0,0.2906,-0.008,0.3996,-0.0138c0.1263,-0.0068,0.2566,-0.0138,0.3781,-0.0138c0.0441,0,0.0875,0.0009,0.1297,0.0031c0.2216,0.0118,0.4115,0.1782,0.4617,0.4047c0.0501,0.2269,-0.0508,0.464,-0.2457,0.5765c-0.5333,0.308,-1.2624,0.7292,-1.8704,1.1821l0.0727,0.1864c0.8817,-0.131,1.6772,-0.4422,2.2399,-0.8761c0.0865,-0.0667,0.1891,-0.1019,0.2964,-0.1019c0.1113,0,0.2168,0.0376,0.3051,0.1087c0.1334,0.1076,0.2058,0.2767,0.1936,0.4524l-0.0069,0.1007l0.0972,0.0096c0.0226,0.0022,0.047,0.0034,0.0729,0.0034c0.3222,0,0.8068,-0.1768,1.1122,-0.6748c0.0924,-0.1506,0.2498,-0.2406,0.4209,-0.2406c0.0436,0,0.0871,0.006,0.1294,0.0179c0.2114,0.0594,0.3601,0.2531,0.3699,0.4822c0.0056,0.13,0.0285,0.199,0.0417,0.2285l0.0183,0.041l0.0414,0.014c0.0288,0.0097,0.0617,0.0144,0.1004,0.0144c0.3303,0,1.0542,-0.3498,1.4578,-0.7841c0.0937,-0.1007,0.2244,-0.1585,0.3586,-0.1585c0.0587,0,0.1167,0.0108,0.172,0.032c0.1853,0.0712,0.3136,0.2504,0.3267,0.4566c0.0021,0.0335,0.0054,0.0606,0.0088,0.0821l0.0145,0.092l0.09,-0.0054c0.2911,-0.0176,0.874,-0.336,1.4058,-0.6451c0.3238,-0.1882,0.5787,-0.3363,0.7823,-0.3985c0.0456,-0.014,0.0927,-0.0211,0.1401,-0.0211c0.0838,0,0.167,0.0223,0.2405,0.0646c0.1176,0.0675,0.2027,0.1789,0.2398,0.3136c0.2175,0.7882,0.008,1.1141,-0.3811,1.6222c-0.0959,0.1253,-0.2393,0.1972,-0.3932,0.1972c-0.1142,0,-0.2215,-0.0393,-0.3104,-0.1136c-0.111,-0.0928,-0.1795,-0.2308,-0.1879,-0.3785l-0.0091,-0.16l-0.1372,0.0745c-0.4185,0.2273,-0.9604,0.4882,-1.4416,0.4882c-0.1969,0,-0.367,-0.0423,-0.5202,-0.1293c-0.0702,-0.0399,-0.1351,-0.0887,-0.193,-0.1452l-0.0573,-0.0558l-0.0659,0.0445c-0.3159,0.2132,-0.9361,0.571,-1.5411,0.571c-0.1692,0,-0.3269,-0.0285,-0.4688,-0.0848c-0.1305,-0.0518,-0.2477,-0.1273,-0.3482,-0.2245l-0.0591,-0.057l-0.0663,0.0477c-0.3902,0.2809,-0.8479,0.4356,-1.2887,0.4356c-0.257,0,-0.4947,-0.0547,-0.6874,-0.1581c-0.0875,-0.047,-0.1663,-0.1041,-0.234,-0.1697l-0.0514,-0.0498l-0.0626,0.0333C8.4513,19.7386,7.3555,20,6.3014,20z" fill="#6485c3"/>
  </g>
</svg>
