<?xml version="1.0" encoding="UTF-8"?>
<!DOCTYPE svg PUBLIC "-//W3C//DTD SVG 1.1//EN" "http://www.w3.org/Graphics/SVG/1.1/DTD/svg11.dtd">
<svg version="1.1" id="Layer_1" xmlns="http://www.w3.org/2000/svg" xmlns:xlink="http://www.w3.org/1999/xlink" x="0px" y="0px" width="24px" height="24px" viewBox="0 0 24 24" enable-background="new 0 0 24 24" xml:space="preserve">
  <g id="icon">
    <path d="M16.936,20.798c-0.317,-1.515,-0.866,-1.571,-3.947,-2.601c-0.006,0.008,-0.012,0.016,-0.017,0.024c-0.071,-0.034,-0.141,-0.069,-0.212,-0.106c-0.081,-0.043,-0.141,-0.133,-0.175,-0.195c-0.117,-0.251,-0.092,-0.681,-0.033,-1.077c0.01,-0.009,0.021,-0.02,0.031,-0.028c0.009,-0.018,0.019,-0.036,0.03,-0.053c0.186,-0.285,0.345,-0.575,0.356,-0.914c0.004,-0.128,0.041,-0.256,0.065,-0.399c0.051,0.037,0.068,0.21,0.14,0.202c0.072,-0.007,0.099,-0.268,0.121,-0.353c0.082,-0.328,0.096,-0.658,0.172,-0.987c0.021,-0.09,0.091,-0.211,-0.043,-0.248c-0.079,-0.022,-0.123,0.024,-0.154,0.083c0,-0.001,0,-0.002,0.001,-0.003c0.041,-0.161,0.041,-0.332,0.091,-0.49c0.131,-0.409,0.085,-0.825,0.075,-1.236c-0.007,-0.315,-0.315,-0.895,-0.451,-1.044c-0.472,-0.616,-1.391,-0.928,-2.289,-0.944c-0.916,0.017,-1.83,0.329,-2.302,0.944c-0.136,0.149,-0.451,0.729,-0.458,1.044c-0.009,0.412,-0.058,0.828,0.072,1.236c0.051,0.159,0.049,0.329,0.09,0.49c0.007,0.027,0.015,0.057,0.023,0.088c-0.034,-0.083,-0.076,-0.201,-0.192,-0.168c-0.134,0.038,-0.063,0.158,-0.043,0.248c0.076,0.329,0.146,0.659,0.228,0.987c0.021,0.085,0.048,0.345,0.121,0.353c0.072,0.007,0.09,-0.165,0.14,-0.202c0.025,0.143,0.061,0.271,0.065,0.399c0.011,0.339,0.17,0.629,0.356,0.914c0.011,0.016,0.021,0.034,0.03,0.053c0.01,0.009,0.022,0.02,0.032,0.03c0.059,0.396,0.084,0.825,-0.033,1.075c-0.034,0.062,-0.093,0.152,-0.174,0.195c-0.076,0.04,-0.152,0.078,-0.23,0.114c-0.008,-0.011,-0.016,-0.021,-0.023,-0.032c-3.08,1.031,-3.649,1.086,-3.965,2.601c-0.095,0.609,-0.111,0.864,0.142,1.539c0.285,0.759,4.318,0.66,6.084,0.66c1.765,0,5.846,0.1,6.131,-0.66C17.047,21.661,17.031,21.407,16.936,20.798zM1.064,17.37c0.317,-1.515,0.866,-1.571,3.947,-2.601c0.006,0.008,0.012,0.016,0.017,0.024c0.071,-0.034,0.141,-0.069,0.212,-0.106c0.081,-0.043,0.141,-0.133,0.175,-0.195c0.117,-0.251,0.092,-0.681,0.033,-1.077c-0.01,-0.009,-0.021,-0.02,-0.031,-0.028c-0.009,-0.018,-0.019,-0.036,-0.03,-0.053c-0.186,-0.285,-0.345,-0.575,-0.356,-0.914c-0.004,-0.128,-0.041,-0.256,-0.065,-0.399c-0.051,0.037,-0.068,0.21,-0.14,0.202c-0.072,-0.007,-0.099,-0.268,-0.121,-0.353c-0.082,-0.328,-0.096,-0.658,-0.172,-0.987c-0.021,-0.09,-0.091,-0.211,0.043,-0.248c0.079,-0.022,0.123,0.024,0.154,0.083c0,-0.001,0,-0.002,-0.001,-0.003c-0.041,-0.161,-0.041,-0.332,-0.091,-0.49c-0.131,-0.409,-0.085,-0.825,-0.075,-1.236c0.007,-0.315,0.315,-0.895,0.451,-1.044c0.472,-0.616,1.391,-0.928,2.289,-0.944c0.916,0.017,1.83,0.329,2.302,0.944c0.136,0.149,0.451,0.729,0.458,1.044c0.006,0.256,0.027,0.513,0.011,0.769c-0.928,0.145,-1.717,0.557,-2.186,1.157c-0.218,0.262,-0.602,0.967,-0.614,1.485c-0.002,0.067,-0.004,0.134,-0.007,0.201c-0.013,0.335,-0.027,0.71,0.07,1.109c-0.011,0.017,-0.022,0.035,-0.032,0.054c-0.169,0.31,-0.078,0.601,-0.043,0.711l0.003,0.009c0.028,0.123,0.047,0.257,0.067,0.398c0.026,0.186,0.054,0.379,0.105,0.586c0.002,0.011,0.004,0.024,0.007,0.038c0.026,0.142,0.089,0.49,0.34,0.701c0.073,0.346,0.233,0.64,0.405,0.909c0.022,0.192,0.022,0.318,0.017,0.397c-0.247,0.083,-0.477,0.159,-0.693,0.23c-1.871,0.619,-2.815,0.932,-3.329,1.803c-1.467,-0.055,-2.817,-0.211,-2.976,-0.636C0.953,18.234,0.969,17.979,1.064,17.37z" fill="#4B89DC"/>
    <path d="M16.793,22.336c-0.284,0.755,-4.315,0.661,-6.098,0.66V10.427c0.001,0,0.002,0,0.003,0c0.898,0.017,1.817,0.329,2.289,0.944c0.136,0.149,0.444,0.729,0.451,1.044c0.009,0.412,0.055,0.828,-0.075,1.236c-0.051,0.159,-0.05,0.329,-0.091,0.49c0,0.001,0,0.002,-0.001,0.003c0.031,-0.058,0.076,-0.105,0.154,-0.083c0.134,0.038,0.063,0.158,0.043,0.248c-0.076,0.329,-0.09,0.659,-0.172,0.987c-0.021,0.085,-0.048,0.345,-0.121,0.353c-0.072,0.007,-0.09,-0.165,-0.14,-0.202c-0.025,0.143,-0.061,0.271,-0.065,0.399c-0.011,0.339,-0.17,0.629,-0.356,0.914c-0.011,0.016,-0.021,0.034,-0.03,0.053c-0.01,0.009,-0.021,0.019,-0.031,0.028c-0.059,0.396,-0.084,0.826,0.033,1.077c0.034,0.062,0.093,0.152,0.175,0.195c0.07,0.037,0.141,0.072,0.212,0.106c0.006,-0.008,0.012,-0.016,0.017,-0.024c3.08,1.031,3.63,1.087,3.947,2.601C17.031,21.407,17.047,21.661,16.793,22.336zM7.782,16.206c-0.251,-0.211,-0.314,-0.56,-0.34,-0.701c-0.003,-0.014,-0.005,-0.027,-0.007,-0.038c-0.051,-0.206,-0.078,-0.399,-0.105,-0.586c-0.007,-0.047,-0.014,-0.092,-0.02,-0.138v3.066c0.066,-0.022,0.133,-0.044,0.202,-0.067c0.215,-0.071,0.446,-0.148,0.693,-0.23c0.005,-0.078,0.004,-0.204,-0.017,-0.397C8.015,16.846,7.855,16.552,7.782,16.206zM7.336,13.709c-0.009,0.014,-0.018,0.029,-0.026,0.045v-0.169C7.317,13.626,7.326,13.668,7.336,13.709zM10.072,9.757c-0.928,0.145,-1.717,0.557,-2.186,1.157c-0.18,0.216,-0.473,0.736,-0.576,1.202V7c0.913,0.019,1.823,0.33,2.294,0.944c0.136,0.149,0.451,0.729,0.458,1.044C10.067,9.244,10.088,9.501,10.072,9.757z" fill="#231F20" opacity="0.1"/>
    <g>
      <path d="M19.434,6.225c-0.048,-0.186,-0.213,-0.316,-0.405,-0.316h-7.732c-0.264,0,-0.494,-0.18,-0.559,-0.436c-0.336,-1.337,-0.904,-2.945,-2.565,-4.089c-0.114,-0.078,-0.258,-0.098,-0.387,-0.048c-0.684,0.262,-1.827,1.033,-1.827,3.25c0,0.481,0.115,0.997,0.307,1.538C6.59,6.05,6.93,6.007,7.283,6l0.019,0l0.019,0c1.292,0.024,2.433,0.515,3.06,1.314c0.256,0.309,0.668,1.062,0.681,1.651c0.002,0.069,0.004,0.137,0.007,0.206c0.003,0.087,0.007,0.179,0.009,0.275c1.135,0.101,2.121,0.572,2.688,1.296c0.254,0.307,0.66,1.057,0.673,1.65c0.002,0.065,0.004,0.131,0.007,0.197c0.012,0.309,0.026,0.679,-0.054,1.076c0.199,0.397,0.087,0.763,0.047,0.888c-0.024,0.11,-0.042,0.234,-0.06,0.366c-0.026,0.182,-0.055,0.388,-0.108,0.606l-0.005,0.029c-0.069,0.377,-0.202,0.628,-0.362,0.794c-0.083,0.329,-0.233,0.612,-0.387,0.859c-0.004,0.04,-0.006,0.075,-0.008,0.107c0.177,0.059,0.346,0.115,0.506,0.168c1.611,0.533,2.583,0.856,3.183,1.517c1.602,0,2.799,0,2.821,0c0.13,0,2.984,-0.403,2.984,-4.11c-0.007,-1.116,-0.837,-2.725,-1.715,-4.429C20.539,9.012,19.767,7.514,19.434,6.225z" fill="#FFCE55"/>
      <path d="M9.855,1.705c1.19,1.053,1.531,3.042,1.535,3.061c0.038,0.189,0.198,0.325,0.384,0.325h10.83c0.048,0,0.097,-0.006,0.142,-0.025c0.186,-0.076,0.28,-0.268,0.25,-0.453C22.972,4.466,22.379,1,19.94,1h-9.795C9.203,1,9.243,1.164,9.855,1.705z" fill="#FFCE55"/>
    </g>
    <path d="M14.294,1h5.652c2.439,0,3.032,3.466,3.056,3.613c0.03,0.185,-0.064,0.377,-0.25,0.453c-0.045,0.018,-0.094,0.025,-0.142,0.025h-5.725C16.767,4.142,16.591,1.729,14.294,1zM19.434,6.225c-0.048,-0.186,-0.213,-0.316,-0.405,-0.316h-5.285c0.549,2.778,2.352,6.507,1.894,9.736c-0.116,0.817,-0.338,1.544,-0.608,2.18c1.023,0.358,1.705,0.666,2.166,1.175c1.513,0,2.804,0,2.821,0c0.13,0,2.984,-0.403,2.984,-4.11c-0.007,-1.116,-0.837,-2.725,-1.715,-4.429C20.539,9.012,19.767,7.514,19.434,6.225z" fill="#F6BB43" opacity="0.75"/>
    <path d="M12.894,10H18.7c0.276,0,0.5,0.224,0.5,0.5s-0.224,0.5,-0.5,0.5h-4.754c-0.064,-0.102,-0.126,-0.191,-0.181,-0.257C13.537,10.451,13.24,10.202,12.894,10zM14.438,12.393c0.002,0.065,0.004,0.131,0.007,0.197c0.005,0.127,0.01,0.265,0.008,0.41H19.6c0.276,0,0.5,-0.224,0.5,-0.5s-0.224,-0.5,-0.5,-0.5h-5.219C14.414,12.134,14.435,12.267,14.438,12.393zM11.061,8.966c0,0.011,0.001,0.023,0.001,0.034H17.6c0.276,0,0.5,-0.224,0.5,-0.5s-0.224,-0.5,-0.5,-0.5h-6.805C10.939,8.309,11.054,8.659,11.061,8.966zM20.5,14h-6.006c0.035,0.256,-0.028,0.465,-0.056,0.554c-0.024,0.11,-0.042,0.234,-0.06,0.366c-0.004,0.026,-0.008,0.053,-0.012,0.08H20.5c0.276,0,0.5,-0.224,0.5,-0.5S20.776,14,20.5,14zM20,16h-5.869c-0.065,0.145,-0.142,0.259,-0.228,0.348c-0.061,0.24,-0.157,0.456,-0.265,0.652H20c0.276,0,0.5,-0.224,0.5,-0.5S20.276,16,20,16z" fill="#FFFFFF"/>
  </g>
</svg>
