<?xml version="1.0" encoding="UTF-8"?>
<!DOCTYPE svg PUBLIC "-//W3C//DTD SVG 1.1//EN" "http://www.w3.org/Graphics/SVG/1.1/DTD/svg11.dtd">
<svg version="1.1" id="Layer_1" xmlns="http://www.w3.org/2000/svg" xmlns:xlink="http://www.w3.org/1999/xlink" x="0px" y="0px" width="24px" height="24px" viewBox="0 0 24 24" enable-background="new 0 0 24 24" xml:space="preserve">
  <g id="icon">
    <path d="M12.05,3v6.0876c1.9552,1.2046,3.4004,3.1604,3.9295,5.4624H23V3H12.05z" fill="#ffffff" opacity="0.5"/>
    <path d="M23,2.4103V5h-5.875c-2.2056,0,-4,1.7944,-4,4c0,0.3354,0.042,0.6612,0.1202,0.9727C11.7116,8.6213,9.7,7.8,7.5,7.8c-0.8687,0,-1.7078,0.1286,-2.5,0.3667V2.4103C5,0.9236,5.9157,0,7.3899,0h13.2202C22.0843,0,23,0.9236,23,2.4103zM15.2378,12.5257C15.8525,13.7177,16.2,15.069,16.2,16.5c0,0.5114,-0.0447,1.0126,-0.1298,1.5h4.5399c1.4741,0,2.3899,-0.9236,2.3899,-2.4103V13h-5.875C16.4429,13,15.8004,12.828,15.2378,12.5257z" fill="#6485c3"/>
    <path d="M22.9012,6H17.125c-1.6542,0,-3,1.3458,-3,3s1.3458,3,3,3h5.7762c0.6059,0,1.0988,-0.4929,1.0988,-1.0988V7.0988C24,6.4929,23.5071,6,22.9012,6zM20,9.4375c0,0.3107,-0.2518,0.5625,-0.5625,0.5625h-1.875c-0.3107,0,-0.5625,-0.2518,-0.5625,-0.5625v-0.875c0,-0.3107,0.2518,-0.5625,0.5625,-0.5625h1.875c0.3107,0,0.5625,0.2518,0.5625,0.5625V9.4375z" fill="#7b7b7b"/>
    <path d="M6.6566,13.3888c0.0597,-0.0238,0.1247,-0.0436,0.1919,-0.0614v1.9307c-0.0291,-0.0093,-0.0597,-0.0181,-0.0884,-0.0275c-0.1874,-0.0617,-0.3536,-0.14,-0.4937,-0.2328c-0.1119,-0.074,-0.1993,-0.1619,-0.267,-0.2685c-0.0531,-0.0837,-0.083,-0.2033,-0.0887,-0.356c-0.0051,-0.1326,0.0169,-0.2584,0.067,-0.3843c0.0484,-0.1211,0.1231,-0.228,0.2287,-0.3269C6.3218,13.5539,6.4733,13.4619,6.6566,13.3888zM8.765,17.2938c-0.1621,-0.0943,-0.3486,-0.1735,-0.5528,-0.2375v2.4484c0.0128,-0.005,0.0269,-0.0089,0.0395,-0.0142c0.2295,-0.0959,0.4214,-0.2193,0.5702,-0.367c0.1439,-0.1427,0.2478,-0.3007,0.3177,-0.4831c0.0714,-0.1864,0.1021,-0.383,0.0939,-0.6008c-0.0071,-0.1872,-0.0454,-0.331,-0.1138,-0.4275C9.0287,17.4839,8.9127,17.3798,8.765,17.2938zM15,16.5c0,4.1355,-3.3645,7.5,-7.5,7.5S0,20.6355,0,16.5s3.3645,-7.5,7.5,-7.5S15,12.3645,15,16.5zM10.596,17.9878c-0.0172,-0.4564,-0.1397,-0.8483,-0.3642,-1.1647c-0.203,-0.2861,-0.4656,-0.5243,-0.7809,-0.7079c-0.2792,-0.1624,-0.5942,-0.2947,-0.9364,-0.3932c-0.0999,-0.0287,-0.2013,-0.0565,-0.3024,-0.0844v-2.2784c0.1444,0.0506,0.239,0.0962,0.2945,0.128c0.1417,0.0812,0.2006,0.1291,0.2199,0.1464l0.4151,0.3703l0.9074,-1.0179l-0.412,-0.3676c-0.1143,-0.1026,-0.2623,-0.2054,-0.4521,-0.3142c-0.1924,-0.1104,-0.4203,-0.2052,-0.697,-0.2898c-0.0869,-0.0266,-0.1797,-0.0476,-0.2757,-0.0659v-0.903H6.8485v0.8925c-0.2502,0.0397,-0.4848,0.0996,-0.6973,0.1843c-0.3422,0.1365,-0.6373,0.3198,-0.8771,0.5445c-0.2513,0.2354,-0.4407,0.5103,-0.5631,0.8172c-0.1205,0.3025,-0.1753,0.6192,-0.163,0.9411c0.015,0.3966,0.1159,0.7447,0.3002,1.035c0.1704,0.2684,0.3945,0.4955,0.6658,0.6749c0.2412,0.1595,0.517,0.291,0.8196,0.3907c0.1662,0.0547,0.3393,0.1064,0.5149,0.1565v2.9782c-0.0729,-0.0065,-0.1434,-0.0146,-0.2087,-0.0261c-0.1838,-0.0325,-0.3524,-0.0796,-0.501,-0.1399c-0.1432,-0.0583,-0.2772,-0.1322,-0.399,-0.2202c-0.1392,-0.1003,-0.2763,-0.2155,-0.4076,-0.3422l-0.9475,0.9806c0.178,0.172,0.3657,0.3295,0.5571,0.4674c0.2093,0.1513,0.4393,0.2783,0.6834,0.3776c0.2376,0.0966,0.4993,0.1705,0.7779,0.2196c0.1395,0.0246,0.29,0.0392,0.4454,0.049v0.9284h1.3636V20.927c0.1986,-0.0459,0.3881,-0.1043,0.5651,-0.1783c0.3925,-0.164,0.7306,-0.3849,1.0049,-0.6569c0.28,-0.2777,0.4922,-0.6019,0.6308,-0.9636C10.5496,18.7713,10.6113,18.3876,10.596,17.9878z" fill="#eead56"/>
    <path d="M10.2318,16.8231c-0.203,-0.2861,-0.4656,-0.5243,-0.7809,-0.7079c-0.2792,-0.1624,-0.5942,-0.2947,-0.9364,-0.3932c-0.0999,-0.0287,-0.2013,-0.0565,-0.3024,-0.0844v-2.2784c0.1444,0.0506,0.239,0.0962,0.2945,0.128c0.1417,0.0812,0.2006,0.1291,0.2199,0.1464l0.4151,0.3703l0.9074,-1.0179l-0.412,-0.3676c-0.1143,-0.1026,-0.2623,-0.2054,-0.4521,-0.3142c-0.1924,-0.1104,-0.4203,-0.2052,-0.697,-0.2898c-0.0869,-0.0266,-0.1797,-0.0476,-0.2757,-0.0659v-0.903H6.8485v0.8925c-0.2502,0.0397,-0.4849,0.0996,-0.6973,0.1843c-0.3422,0.1365,-0.6373,0.3198,-0.8771,0.5445c-0.2513,0.2354,-0.4407,0.5103,-0.5631,0.8172c-0.1205,0.3025,-0.1753,0.6192,-0.163,0.9411c0.015,0.3966,0.1159,0.7447,0.3002,1.035c0.1705,0.2684,0.3945,0.4955,0.6658,0.6749c0.2412,0.1595,0.517,0.291,0.8196,0.3907c0.1662,0.0547,0.3393,0.1064,0.5149,0.1565v2.9782c-0.0729,-0.0065,-0.1434,-0.0146,-0.2087,-0.0261c-0.1838,-0.0325,-0.3524,-0.0796,-0.501,-0.1399c-0.1432,-0.0583,-0.2772,-0.1322,-0.399,-0.2202c-0.1392,-0.1003,-0.2763,-0.2155,-0.4076,-0.3422l-0.9475,0.9806c0.178,0.172,0.3657,0.3295,0.5571,0.4674c0.2093,0.1513,0.4393,0.2783,0.6834,0.3776c0.2376,0.0966,0.4993,0.1705,0.7779,0.2196c0.1395,0.0246,0.29,0.0392,0.4454,0.049v0.9284h1.3636V20.927c0.1986,-0.0459,0.3881,-0.1043,0.5651,-0.1783c0.3925,-0.164,0.7306,-0.3849,1.0049,-0.6569c0.28,-0.2777,0.4922,-0.6019,0.6308,-0.9636c0.1367,-0.3569,0.1983,-0.7406,0.1831,-1.1404C10.5788,17.5314,10.4563,17.1395,10.2318,16.8231zM6.7602,15.2305c-0.1874,-0.0618,-0.3536,-0.14,-0.4937,-0.2328c-0.1119,-0.074,-0.1993,-0.1619,-0.267,-0.2685c-0.0531,-0.0837,-0.083,-0.2033,-0.0887,-0.356c-0.0051,-0.1326,0.0169,-0.2584,0.067,-0.3844c0.0484,-0.1211,0.1231,-0.228,0.2287,-0.3269c0.1154,-0.108,0.2668,-0.2,0.4502,-0.2732c0.0597,-0.0238,0.1247,-0.0436,0.1919,-0.0614v1.9307C6.8194,15.2487,6.7889,15.24,6.7602,15.2305zM9.1395,18.6403c-0.0699,0.1824,-0.1738,0.3405,-0.3177,0.4831c-0.1488,0.1476,-0.3407,0.2711,-0.5702,0.367c-0.0126,0.0052,-0.0266,0.0092,-0.0395,0.0142v-2.4484c0.2042,0.064,0.3907,0.1432,0.5528,0.2375c0.1477,0.0861,0.2638,0.1902,0.3546,0.3183c0.0684,0.0965,0.1067,0.2403,0.1138,0.4275C9.2417,18.2573,9.2109,18.4539,9.1395,18.6403z" fill="#ffffff" opacity="0.5"/>
  </g>
</svg>
