<?xml version="1.0" encoding="UTF-8"?>
<!DOCTYPE svg PUBLIC "-//W3C//DTD SVG 1.1//EN" "http://www.w3.org/Graphics/SVG/1.1/DTD/svg11.dtd">
<svg version="1.1" id="Layer_1" xmlns="http://www.w3.org/2000/svg" xmlns:xlink="http://www.w3.org/1999/xlink" x="0px" y="0px" width="32px" height="32px" viewBox="0 0 32 32" enable-background="new 0 0 32 32" xml:space="preserve">
  <g id="main">
    <g id="icon">
      <path d="M3.5,29.5L18.5,29.5L18.5,17.5L20.5,17.5L22.57,17.5L22.86,17.07L23.2,16.69L23.59,16.35L24.01,16.06L24.48,15.83L24.97,15.66L25.48,15.56L26.02,15.52L26.5,15.55L26.5,6.5L20.5,0.5L3.5,0.5z" fill="#FFFFFF"/>
      <path d="M3,0.5L3,29.5L3,30L3.5,30L18.5,30L18.5,29L4,29L4,1L20.29,1L26,6.706L26,15.52L26.02,15.52L26.55,15.56L27,15.65L27,6.5L27,6.294L26.85,6.147L20.85,0.1469L20.71,0L20.5,0L3.5,0L3,0z" fill="#383838"/>
      <path d="M20,6.5L20,7L20.5,7L26.5,7L26.5,6L21,6L21,0.5L20,0.5z" fill="#383838"/>
      <path d="M7,10L23,10L23,9L7,9M7,13L23,13L23,12L7,12M7,16L23,16L23,15L7,15M7,19L18,19L18,18L7,18z" fill="#787979"/>
      <path d="M13.14,21.03L12.25,21.16L12.21,21.17L11.34,21.36L11.29,21.38L10.24,21.73L10.19,21.75L9.691,21.98L9.634,22.02L9.206,22.29L9.125,22.36L8.806,22.68L8.709,22.82L8.538,23.18L8.491,23.38L8.478,23.68L8.538,23.93L8.644,24.13L8.831,24.33L9.031,24.44L9.084,24.47L8.844,24.61L8.813,24.63L8.009,25.22L7.953,25.27L7.316,25.89L7.275,25.93L7.109,26.14L6.997,26.39L7.047,26.66L7.219,26.88L7.481,26.95L8.559,26.99L8.644,26.99L9.788,26.83L9.85,26.82L10.42,26.67L10.46,26.66L11,26.46L11.05,26.44L11.49,26.22L11.68,26.39L11.95,26.53L12.11,26.58L12.47,26.62L12.6,26.62L13.01,26.56L13.12,26.53L13.54,26.37L13.65,26.31L13.93,26.11L14.03,26.21L14.17,26.32L14.35,26.4L14.69,26.49L14.88,26.5L15.29,26.45L15.39,26.43L15.83,26.27L15.89,26.24L16.32,26.02L16.37,25.99L16.56,25.87L16.57,25.88L16.7,26L16.86,26.1L17.03,26.17L17.23,26.2L17.65,26.19L17.78,26.17L18.28,26.01L18.35,25.98L18.5,25.9L18.5,24.78L17.93,25.07L17.54,25.19L17.32,25.2L17.3,25.17L17.27,24.97L17.16,24.73L16.94,24.58L16.68,24.56L16.44,24.68L16.17,24.92L15.83,25.15L15.47,25.34L15.11,25.46L14.85,25.5L14.7,25.46L14.67,25.43L14.64,25.34L14.61,25.14L14.5,24.87L14.26,24.72L13.97,24.72L13.74,24.88L13.43,25.24L13.13,25.46L12.81,25.58L12.52,25.62L12.32,25.59L12.29,25.58L12.3,25.5L12.26,25.23L12.07,25.02L11.8,24.94L11.53,25.03L11.1,25.31L10.64,25.53L10.14,25.71L9.622,25.85L8.672,25.98L9.384,25.46L10.22,24.94L11.02,24.5L11.24,24.26L11.25,23.93L11.08,23.65L10.76,23.56L10.18,23.58L9.609,23.57L9.484,23.55L9.484,23.52L9.578,23.32L9.797,23.1L10.15,22.87L10.59,22.67L11.58,22.33L12.42,22.14L13.25,22.02L13.79,22.02L13.8,22.02L13.8,22.03L13.77,22.08L13.54,22.28L13.2,22.53L13.16,22.57L12.81,22.88L12.62,23.22L12.77,23.58L13.12,23.78L13.48,23.62L13.81,23.33L14.15,23.08L14.19,23.05L14.49,22.78L14.57,22.68L14.67,22.53L14.73,22.4L14.79,22.23L14.81,22.08L14.81,21.86L14.77,21.64L14.69,21.48L14.53,21.29L14.38,21.18L14.22,21.1L14,21.04L13.87,21.02L13.22,21.02z" fill="#238BCB"/>
      <path d="M7.5,5.5L16.5,5.5L16.5,3.5L7.5,3.5z" fill="#FFFFFF"/>
      <path d="M7,3.5L7,5.5L7,6L7.5,6L16.5,6L17,6L17,5.5L17,3.5L17,3L16.5,3L7.5,3L7,3M16,4L16,5L8,5L8,4z" fill="#228BCB"/>
    </g>
    <g id="overlay">
      <polyline points="28.2,18.5 31.5,18.5 31.5,31.5 20.5,31.5 20.5,18.5 23.3,18.5" fill="#FFFFFF" stroke="#ED8730" stroke-width="1" stroke-miterlimit="1" stroke-linejoin="miter"/>
      <path d="M28.011,18.5c0,-1.094,-0.892,-1.98,-1.993,-1.98c-1.101,0,-1.993,0.886,-1.993,1.98H22.5v2h7v-2H28.011z" fill="#FFFFFF" stroke="#383838" stroke-width="1" stroke-miterlimit="1"/>
    </g>
  </g>
</svg>
