<?xml version="1.0" encoding="UTF-8"?>
<!DOCTYPE svg PUBLIC "-//W3C//DTD SVG 1.1//EN" "http://www.w3.org/Graphics/SVG/1.1/DTD/svg11.dtd">
<svg version="1.1" id="Layer_1" xmlns="http://www.w3.org/2000/svg" xmlns:xlink="http://www.w3.org/1999/xlink" x="0px" y="0px" width="24px" height="24px" viewBox="0 0 24 24" enable-background="new 0 0 24 24" xml:space="preserve">
  <g id="icon">
    <polygon points="13,21 13,18 11,18 11,21 2,21 2,22.5 22,22.5 22,21" fill="#AAB2BD" stroke-linejoin="miter"/>
    <path d="M13.45,23h-2.9c-0.3038,0,-0.55,-0.2462,-0.55,-0.55v-1.4c0,-0.3038,0.2462,-0.55,0.55,-0.55h2.9c0.3038,0,0.55,0.2462,0.55,0.55v1.4C14,22.7538,13.7538,23,13.45,23z" fill="#F6BB43"/>
    <path d="M3.5,16c-0.9991,0,-1.5,-0.75,-1.5,-1.3s0,-4.3,0,-4.3c0,-2.975,0.229,-4.4,1.2,-4.4h17.6c1.0273,0,1.2,1.425,1.2,4.4s0,3.7354,0,4.2s-0.5008,1.4,-1.5,1.4" fill-rule="evenodd" fill="#AAB2BD"/>
    <path d="M2,12v2.5104C2,15.4617,2.329,16,3.3281,16h17.2063c0.9992,0,1.4656,-0.5383,1.4656,-1.4896V12H2z" fill-rule="evenodd" fill="#8E949C"/>
    <path d="M17.05,16H6.9375c-0.5178,0,-0.9375,-0.4197,-0.9375,-0.9375V14.05c0,-0.5799,0.4701,-1.05,1.05,-1.05h9.9c0.5799,0,1.05,0.4701,1.05,1.05v1C18,15.5747,17.5747,16,17.05,16z" fill-rule="evenodd" fill="#656D78"/>
    <path d="M17,14v4.484c0,0.285,-0.231,0.516,-0.516,0.516H7.5268c-0.2845,0,-0.5153,-0.2303,-0.516,-0.5148L7,14H17z" fill-rule="evenodd" fill="#E6E9EE"/>
    <path d="M17,14h-2.6476l-1.2667,5h3.3983c0.285,0,0.516,-0.231,0.516,-0.516V14z" fill-rule="evenodd" fill="#231F20" opacity="0.06"/>
    <path d="M18.4375,6c0.3107,0,0.5625,0.2518,0.5625,0.5625v3.0184c0,0.7837,-0.4955,1.4191,-1.3187,1.4191H6.3c-0.8232,0,-1.2967,-0.6354,-1.2967,-1.4191v-3.02c0,-0.3097,0.2511,-0.5609,0.5609,-0.5609H18.4375z" fill-rule="evenodd" fill="#5D9CEC"/>
    <path d="M5,8v1.5809C5,10.3646,5.4768,11,6.3,11h11.3813c0.8232,0,1.3187,-0.6354,1.3187,-1.4191V8H5z" fill-rule="evenodd" fill="#4B89DC" opacity="0.7"/>
    <path d="M18,6H6V3.6c0,-0.3383,0.2742,-0.6125,0.6125,-0.6125h10.775c0.3383,0,0.6125,0.2742,0.6125,0.6125V6z" fill-rule="evenodd" fill="#656D78"/>
    <path d="M7.4907,1.0093H16.5c0.271,0,0.4907,0.2197,0.4907,0.4907L17,6H7V1.5C7,1.229,7.2197,1.0093,7.4907,1.0093z" fill-rule="evenodd" fill="#E6E9EE"/>
    <path d="M16.9954,6c0.0025,-0.0301,0.0046,-0.0603,0.0046,-0.091V1.575c0,-0.3176,-0.2574,-0.575,-0.575,-0.575h-2.0583c-0.0085,0,-0.0161,0.0055,-0.0187,0.0136L13.4095,6H16.9954z" fill-rule="evenodd" fill="#231F20" opacity="0.06"/>
    <path d="M3,11h2v2H3V11z" fill-rule="evenodd" fill="#ED5564"/>
    <path d="M9.5,16.5h5" fill="none" stroke="#8E949C" stroke-width="1" stroke-linecap="round" stroke-miterlimit="1"/>
    <path d="M17,15H7v-1h10V15zM17,4H7v2h10V4z" fill="#231F20" opacity="0.1"/>
  </g>
</svg>
