<?xml version="1.0" encoding="UTF-8"?>
<!DOCTYPE svg PUBLIC "-//W3C//DTD SVG 1.1//EN" "http://www.w3.org/Graphics/SVG/1.1/DTD/svg11.dtd">
<svg version="1.1" id="Layer_1" xmlns="http://www.w3.org/2000/svg" xmlns:xlink="http://www.w3.org/1999/xlink" x="0px" y="0px" width="24px" height="24px" viewBox="0 0 24 24" enable-background="new 0 0 24 24" xml:space="preserve">
  <g id="icon">
    <path d="M4.3719,1c0.0751,0,0.1456,0.0291,0.1984,0.0819l2.4498,2.4415c0.0528,0.0527,0.0819,0.1232,0.0819,0.1985c0,0.0752,-0.0291,0.1457,-0.0819,0.1985l-0.4894,0.4894L4.5698,6.3111c-0.0527,0.0527,-0.1229,0.0814,-0.198,0.0814c-0.0751,0,-0.1456,-0.0291,-0.1984,-0.0819l-0.4894,-0.4894c-0.0532,-0.0532,-0.0863,-0.1197,-0.0933,-0.1873c-0.0076,-0.0745,0.0174,-0.1697,0.0702,-0.2226L4.7966,4.3h-0.7571C2.2989,4.3,2.3,4.9095,2.3,6.5269V8.266c0,0.1885,-0.1355,0.234,-0.423,0.234h-0.4725C1.0103,8.5,1,8.3397,1,8.2706V6.5269C1,4.0249,1.7877,3,4.0395,3h0.7588L3.6614,1.918c-0.0538,-0.0538,-0.0784,-0.1077,-0.0706,-0.179c0.0069,-0.064,0.0392,-0.12,0.0932,-0.1739l0.4894,-0.4863C4.2262,1.026,4.2967,1,4.3719,1z" fill="#4B89DC"/>
    <path d="M19.6302,23c-0.0751,0,-0.1456,-0.0291,-0.1984,-0.0819l-2.4498,-2.4415c-0.0528,-0.0527,-0.0819,-0.1232,-0.0819,-0.1985c0,-0.0752,0.0291,-0.1457,0.0819,-0.1985l0.4894,-0.4894l1.9609,-1.9013c0.0527,-0.0527,0.1229,-0.0814,0.198,-0.0814c0.0751,0,0.1456,0.0291,0.1984,0.0819l0.4894,0.4894c0.0532,0.0532,0.0863,0.1197,0.0933,0.1873c0.0076,0.0745,-0.0174,0.1697,-0.0702,0.2226L19.2055,19.7h0.7571c1.7405,0,1.7374,-0.6095,1.7374,-2.2269V15.734c0,-0.1885,0.1375,-0.234,0.4251,-0.234h0.4725c0.3941,0,0.4024,0.1603,0.4024,0.2294v1.7438c0,2.502,-0.7856,3.5269,-3.0374,3.5269h-0.7588l1.1368,1.082c0.0538,0.0538,0.0784,0.1077,0.0706,0.179c-0.0069,0.064,-0.0392,0.12,-0.0932,0.1739l-0.4894,0.4863C19.7759,22.974,19.7054,23,19.6302,23z" fill="#4B89DC"/>
    <g>
      <path d="M9.7018,4.8038l-0.013,2.4336c0.0214,0.0127,0.0429,0.0255,0.0643,0.0405c0.0025,0.0013,7.4194,3.9407,7.4194,3.9407c0.5071,0.2651,0.8049,0.7975,0.7732,1.3898c-0.0111,0.2129,-0.0674,0.4249,-0.1626,0.6137c-0.2237,0.4429,-0.6478,0.7305,-1.126,0.7728c-0.0188,0.1056,-0.0489,0.2072,-0.0866,0.3051h3.6376l0.0158,-9.5824L9.7018,4.8038z" fill-rule="evenodd" fill="#E6E9EE"/>
      <g>
        <g>
          <path d="M16.5276,14.4h0.091c0.2057,0,0.3814,-0.1637,0.3814,-0.3655v-0.1148c-0.1095,0.0392,-0.2245,0.0648,-0.3429,0.0753C16.6318,14.1372,16.5865,14.2723,16.5276,14.4z" fill-rule="evenodd" fill="#F6BB43"/>
          <path d="M17,11.127V8.3655c0,-0.2019,-0.1757,-0.3655,-0.3814,-0.3655h-3.2371c-0.2057,0,-0.3814,0.1637,-0.3814,0.3655v0.6369C14.6617,9.8851,16.4484,10.8341,17,11.127z" fill-rule="evenodd" fill="#F6BB43"/>
        </g>
        <path d="M8.9432,7.0805c0.0711,0,0.1421,0.0195,0.2128,0.0195c0.0044,0,0.0088,0,0.0132,0c0.1359,0,0.3625,0.0221,0.5839,0.1779c0.0008,0.0004,0.6897,0.3663,1.6469,0.8747V7.4h0.1067c0.4014,0,0.7269,-0.3061,0.7269,-0.7c0,-0.3939,-0.3254,-0.7,-0.7269,-0.7H9.0353c-0.4014,0,-0.7269,0.3061,-0.7269,0.7c0,0.1703,0.061,0.3241,0.1626,0.444C8.6254,7.1017,8.7841,7.0805,8.9432,7.0805z" fill-rule="evenodd" fill="#AAB2BD"/>
        <path d="M11.4,8.1527V7.4h0.1067c0.4014,0,0.7269,-0.3061,0.7269,-0.7c0,-0.3939,-0.3254,-0.7,-0.7269,-0.7H10.3v1.5684C10.5848,7.7197,10.9644,7.9213,11.4,8.1527z" fill-rule="evenodd" fill="#24282D" opacity="0.08"/>
      </g>
      <g>
        <path d="M20.9562,12.4H20.9V7.4h0.0562c0.4014,0,0.7269,-0.3061,0.7269,-0.7c0,-0.3939,-0.3254,-0.7,-0.7269,-0.7h-2.4714c-0.4014,0,-0.7269,0.3061,-0.7269,0.7c0,0.3939,0.3254,0.7,0.7269,0.7H18.6v5h-0.1152c-0.4014,0,-0.7269,0.3561,-0.7269,0.75c0,0.3939,0.3254,0.85,0.7269,0.85h2.4714c0.4014,0,0.7269,-0.4561,0.7269,-0.85C21.6831,12.7561,21.3577,12.4,20.9562,12.4z" fill-rule="evenodd" fill="#AAB2BD"/>
        <path d="M20.9562,12.4H20.9V7.4h0.0562c0.4014,0,0.7269,-0.3061,0.7269,-0.7c0,-0.3939,-0.3254,-0.7,-0.7269,-0.7H19.7v8h1.2562c0.4014,0,0.7269,-0.4561,0.7269,-0.85C21.6831,12.7561,21.3577,12.4,20.9562,12.4z" fill-rule="evenodd" fill="#24282D" opacity="0.08"/>
      </g>
      <g>
        <path d="M20.7,15.734c0,-0.0682,0.0121,-0.4224,0.2409,-0.734h-4.8751c-0.0529,0.0438,-0.1077,0.0856,-0.1658,0.123V16h4.8V15.734z" fill-rule="evenodd" fill="#8E949C"/>
        <path d="M22.1251,14.5h0.1714c-0.0183,-0.2788,-0.2479,-0.5,-0.5314,-0.5h-5.1091c-0.0826,0.4555,-0.3508,0.8473,-0.7239,1.1h4.9432C21.0526,14.7964,21.4086,14.5,22.1251,14.5z" fill-rule="evenodd" fill="#8E949C"/>
        <path d="M15.2976,1.1618l7.4076,3.9377c0.4045,0.2115,0.2733,0.9004,-0.1711,0.9004H7.4498c-0.4434,0,-0.5755,-0.6866,-0.1727,-0.8996l7.323,-3.9405C14.8213,1.0429,15.0759,1.0459,15.2976,1.1618z" fill-rule="evenodd" fill="#8E949C"/>
        <ellipse cx="14.9957" cy="3.8033" rx="1.163" ry="1.1412" fill-rule="evenodd" fill="#E6E9EE"/>
      </g>
      <path d="M17.9457,12.6084c-0.0111,0.2129,-0.0674,0.4249,-0.1626,0.6137c-0.2237,0.4429,-0.6478,0.7305,-1.126,0.7728c-0.0839,0.4711,-0.3654,0.8756,-0.7571,1.1281V16h4.8v-0.266c0,-0.1263,0.0399,-1.234,1.4251,-1.234H22.3v-0.1386c0,-0.2216,-0.1458,-0.3614,-0.3716,-0.3614h-0.9722c0.4014,0,0.7269,-0.4561,0.7269,-0.85c0,-0.3939,-0.3254,-0.75,-0.7269,-0.75H20.9V7.4h0.0562c0.4014,0,0.7269,-0.3061,0.7269,-0.7c0,-0.3939,-0.3254,-0.7,-0.7269,-0.7h1.5779c0.4444,0,0.5756,-0.6889,0.1711,-0.9004l-7.4555,-3.9413C15.1535,1.1079,15.2,0.9419,15,1.3921v8.6727c1.2212,0.6486,2.1725,1.1539,2.1725,1.1539C17.6796,11.4838,17.9773,12.0161,17.9457,12.6084z" fill-rule="evenodd" fill="#24282D" opacity="0.06"/>
    </g>
    <g>
      <path d="M3.7018,11.8038l10.5222,-0.0862L14.2081,21.3H3.651L3.7018,11.8038z" fill-rule="evenodd" fill="#E6E9EE"/>
      <path d="M11,21.0345c0,0.2019,-0.1757,0.3655,-0.3814,0.3655H7.3814c-0.2057,0,-0.3814,-0.1637,-0.3814,-0.3655v-5.6689c0,-0.2019,0.1757,-0.3655,0.3814,-0.3655h3.2371c0.2057,0,0.3814,0.1637,0.3814,0.3655V21.0345z" fill-rule="evenodd" fill="#F6BB43"/>
      <g>
        <path d="M5.5067,19.4H5.4v-5h0.1067c0.4014,0,0.7269,-0.3061,0.7269,-0.7c0,-0.3939,-0.3254,-0.7,-0.7269,-0.7H3.0353c-0.4014,0,-0.7269,0.3061,-0.7269,0.7c0,0.3939,0.3254,0.7,0.7269,0.7H3.1v5h-0.0647c-0.4014,0,-0.7269,0.3561,-0.7269,0.75c0,0.3939,0.3254,0.85,0.7269,0.85h2.4714c0.4014,0,0.7269,-0.4561,0.7269,-0.85C6.2336,19.7561,5.9081,19.4,5.5067,19.4z" fill-rule="evenodd" fill="#AAB2BD"/>
        <path d="M5.5067,19.4H5.4v-5h0.1067c0.4014,0,0.7269,-0.3061,0.7269,-0.7c0,-0.3939,-0.3254,-0.7,-0.7269,-0.7H4.3v8h1.2067c0.4014,0,0.7269,-0.4561,0.7269,-0.85C6.2336,19.7561,5.9081,19.4,5.5067,19.4z" fill-rule="evenodd" fill="#24282D" opacity="0.08"/>
      </g>
      <g>
        <path d="M14.9562,19.4H14.9v-5h0.0562c0.4014,0,0.7269,-0.3061,0.7269,-0.7c0,-0.3939,-0.3254,-0.7,-0.7269,-0.7h-2.4714c-0.4014,0,-0.7269,0.3061,-0.7269,0.7c0,0.3939,0.3254,0.7,0.7269,0.7H12.6v5h-0.1152c-0.4014,0,-0.7269,0.3561,-0.7269,0.75c0,0.3939,0.3254,0.85,0.7269,0.85h2.4714c0.4014,0,0.7269,-0.4561,0.7269,-0.85C15.6831,19.7561,15.3577,19.4,14.9562,19.4z" fill-rule="evenodd" fill="#AAB2BD"/>
        <path d="M14.9562,19.4H14.9v-5h0.0562c0.4014,0,0.7269,-0.3061,0.7269,-0.7c0,-0.3939,-0.3254,-0.7,-0.7269,-0.7H13.7v8h1.2562c0.4014,0,0.7269,-0.4561,0.7269,-0.85C15.6831,19.7561,15.3577,19.4,14.9562,19.4z" fill-rule="evenodd" fill="#24282D" opacity="0.08"/>
      </g>
      <path d="M16.4651,23H1.5349c-0.2954,0,-0.5349,-0.2395,-0.5349,-0.5349v-0.0301c0,-0.2954,0.2395,-0.4349,0.5349,-0.4349h14.9301c0.2954,0,0.5349,0.1395,0.5349,0.4349v0.0301C17,22.7605,16.7605,23,16.4651,23z" fill-rule="evenodd" fill="#8E949C"/>
      <path d="M16.3,21.5651c0,0.2954,-0.2395,0.5349,-0.5349,0.5349H2.2349c-0.2954,0,-0.5349,-0.2395,-0.5349,-0.5349v-0.0301c0,-0.2954,0.2395,-0.5349,0.5349,-0.5349h13.5301c0.2954,0,0.5349,0.2395,0.5349,0.5349V21.5651z" fill-rule="evenodd" fill="#8E949C"/>
      <g>
        <path d="M9.2976,8.1618l7.4076,3.9377c0.4045,0.2115,0.2733,0.9004,-0.1711,0.9004H1.4498c-0.4434,0,-0.5755,-0.6866,-0.1727,-0.8996L8.6001,8.16C8.8213,8.0429,9.0759,8.0459,9.2976,8.1618z" fill-rule="evenodd" fill="#8E949C"/>
        <ellipse cx="8.9957" cy="10.8033" rx="1.163" ry="1.1412" fill-rule="evenodd" fill="#E6E9EE"/>
      </g>
      <path d="M16.5826,22h-0.6542c0.2258,0,0.3716,-0.1495,0.3716,-0.3711v-0.2675c0,-0.2216,-0.1458,-0.3614,-0.3716,-0.3614h-0.9722c0.4014,0,0.7269,-0.4561,0.7269,-0.85c0,-0.3939,-0.3254,-0.75,-0.7269,-0.75H14.9v-5h0.0562c0.4014,0,0.7269,-0.3061,0.7269,-0.7c0,-0.3939,-0.3254,-0.7,-0.7269,-0.7h1.5779c0.4444,0,0.5756,-0.6889,0.1711,-0.9004L9.2497,8.1582C9.1535,8.1079,9.2,7.9419,9,8.3921V23h7.5826c0.2258,0,0.4174,-0.1796,0.4174,-0.4012v-0.1675C17,22.2097,16.8084,22,16.5826,22z" fill-rule="evenodd" fill="#24282D" opacity="0.06"/>
    </g>
  </g>
</svg>
