<?xml version="1.0" encoding="UTF-8"?>
<!DOCTYPE svg PUBLIC "-//W3C//DTD SVG 1.1//EN" "http://www.w3.org/Graphics/SVG/1.1/DTD/svg11.dtd">
<svg version="1.1" id="Layer_1" xmlns="http://www.w3.org/2000/svg" xmlns:xlink="http://www.w3.org/1999/xlink" x="0px" y="0px" width="16px" height="16px" viewBox="0 0 16 16" enable-background="new 0 0 16 16" xml:space="preserve">
  <g id="main">
    <g id="icon">
      <path d="M5.616,0.5594L5.241,0.675L4.903,0.8594L4.609,1.1L4.366,1.394L4.181,1.728L4.066,2.1L4.025,2.5L3.3,2.5L2.5,2.5L0.5,2.5L0.5,13.5L6.691,13.5L6.769,13.34L7.184,12.48L7.419,12.06L7.691,11.69L7.997,11.38L8.331,11.11L8.694,10.9L9.081,10.75L9.491,10.66L9.916,10.63L10.13,10.64L11.5,9.191L11.5,2.5L9.5,2.5L8.2,2.5L8.009,2.5L7.969,2.1L7.853,1.728L7.672,1.394L7.428,1.1L7.131,0.8594L6.794,0.675L6.419,0.5594L6.019,0.5188z" fill="#ffffff" opacity="0.5"/>
      <path d="M0,14L6.447,14L6.769,13.34L6.934,13L1,13L1,3L3.3,3L3.494,2.959L3.653,2.853L3.759,2.694L3.8,2.5L3.759,2.306L3.653,2.147L3.494,2.041L3.3,2L0,2M8.006,2.041L7.847,2.147L7.741,2.306L7.7,2.5L7.741,2.694L7.847,2.853L8.006,2.959L8.2,3L11,3L11,9.722L12,8.663L12,2L8.2,2z" fill="#eeac55"/>
      <path d="M5.566,0.5844L5.197,0.7406L4.869,0.975L4.588,1.263L4.356,1.578L4.184,1.903L4.078,2.213L4.041,2.484L2.4,2.484L2.4,4.45L9.5,4.45L9.5,2.484L7.894,2.484L7.859,2.213L7.75,1.903L7.578,1.578L7.35,1.263L7.069,0.975L6.741,0.7406L6.372,0.5844L5.969,0.525z" fill="#b7b7b7" opacity="0.4"/>
      <path d="M5.578,0.05938L5.163,0.1719L4.778,0.35L4.434,0.5875L4.134,0.8781L3.888,1.216L3.697,1.591L3.575,2L2,2L2,5L10,5L10,2L8.459,2L8.338,1.591L8.15,1.216L7.903,0.8781L7.603,0.5875L7.256,0.35L6.875,0.1719L6.459,0.05938L6.019,0.01875M6.319,1.05L6.597,1.138L6.853,1.272L7.072,1.453L7.256,1.672L7.394,1.925L7.481,2.203L7.509,2.5L7.509,3L9,3L9,4L3,4L3,3L4.525,3L4.525,2.5L4.556,2.203L4.644,1.925L4.781,1.672L4.963,1.453L5.184,1.272L5.438,1.138L5.719,1.05L6.019,1.019z" fill="#6d6e71"/>
      <path d="M3,7L9,7L9,6L3,6M3,9L9,9L9,8L3,8M3,11L8.525,11L8.694,10.9L9,10.78L9,10L3,10z" fill="#6485c3"/>
      <path d="M1,12L1,13L2,13L6.934,13L7.184,12.48L7.419,12.06L7.463,12L2,12L2,3L1,3M10,10.63L10.13,10.64L11,9.722L11,3L10,3z" fill="#eeac55" opacity="0.2"/>
    </g>
    <g id="overlay">
      <path d="M15.7079,7.7297L15.7079,7.7297c-0.3614,-0.3256,-0.9171,-0.2953,-1.2413,0.0677l-3.4235,3.6239c0.4522,0.2245,0.8487,0.5768,1.119,1.0167c0.0463,0.0754,0.0872,0.1524,0.1248,0.2302l3.4885,-3.6916C16.0995,8.6135,16.0693,8.0553,15.7079,7.7297z" fill="#6d6e71"/>
      <path d="M11.6695,14.4787c-0.6869,1.3897,-1.4809,1.5743,-5.811,1.5105c-0.0644,-0.0009,-0.0814,-0.0882,-0.0219,-0.1124c1.5162,-0.6182,1.2637,-0.5,2.4253,-2.8712C9.4957,10.487,12.6485,12.4983,11.6695,14.4787z" fill="#6485c3"/>
    </g>
  </g>
</svg>
