<?xml version="1.0" encoding="UTF-8"?>
<!DOCTYPE svg PUBLIC "-//W3C//DTD SVG 1.1//EN" "http://www.w3.org/Graphics/SVG/1.1/DTD/svg11.dtd">
<svg version="1.1" id="Layer_1" xmlns="http://www.w3.org/2000/svg" xmlns:xlink="http://www.w3.org/1999/xlink" x="0px" y="0px" width="24px" height="24px" viewBox="0 0 24 24" enable-background="new 0 0 24 24" xml:space="preserve">
  <g id="icon">
    <path d="M11.6515,17.2789c-0.6675,1.3579,-1.8222,2.4518,-3.3324,2.9626c-1.5101,0.5108,-3.0738,0.3364,-4.3947,-0.3318c-1.3058,-0.6733,-2.3788,-1.8713,-2.8776,-3.418c-0.788,-2.4437,0.8524,-6.4978,2.0371,-9.4202c0.1924,-0.4939,0.3798,-0.9518,0.5419,-1.384c0.3816,0.2483,0.7983,0.5019,1.2351,0.7658c2.6511,1.6249,6.3214,3.8655,7.1144,6.3247C12.4743,14.3247,12.304,15.9261,11.6515,17.2789zM19.912,2.0436c-1.9768,-0.6813,-5.237,0.6899,-7.596,1.6771c-0.3862,0.1646,-0.7558,0.3207,-1.1047,0.4556c0.1982,0.3234,0.4005,0.6767,0.6235,1.0512c1.2963,2.247,3.0961,5.3621,5.0605,6.0392c1.2433,0.4285,2.5462,0.2964,3.6263,-0.2527c1.0843,-0.5619,1.9706,-1.5322,2.3889,-2.8054c0.4184,-1.2733,0.2852,-2.595,-0.2592,-3.7182C22.1027,3.3798,21.1553,2.4721,19.912,2.0436zM21.3733,16.2369c-1.0296,-1.1138,-3.548,-1.3687,-5.3686,-1.5562c-0.299,-0.0289,-0.5848,-0.0573,-0.8504,-0.0921c0.0193,0.2735,0.0315,0.5672,0.0497,0.8816c0.0832,1.872,0.2004,4.4683,1.2236,5.5751c0.6475,0.7005,1.5173,1.0661,2.3828,1.0903c0.8723,0.0176,1.7534,-0.2921,2.4374,-0.9553c0.684,-0.6632,1.0341,-1.5472,1.0581,-2.4473C22.3232,17.8398,22.0208,16.9374,21.3733,16.2369z" fill="#ffffff"/>
    <path d="M11.6515,17.2789c-0.6675,1.3579,-1.8222,2.4518,-3.3324,2.9626c-1.5101,0.5108,-3.0738,0.3364,-4.3947,-0.3318c-1.3058,-0.6733,-2.3788,-1.8713,-2.8776,-3.418c-0.788,-2.4437,0.8524,-6.4978,2.0371,-9.4202c0.1924,-0.4939,0.3798,-0.9518,0.5419,-1.384c0.3816,0.2483,0.7983,0.5019,1.2351,0.7658c2.6511,1.6249,6.3214,3.8655,7.1144,6.3247C12.4743,14.3247,12.304,15.9261,11.6515,17.2789zM19.912,2.0436c-1.9768,-0.6813,-5.237,0.6899,-7.596,1.6771c-0.3862,0.1646,-0.7558,0.3207,-1.1047,0.4556c0.1982,0.3234,0.4005,0.6767,0.6235,1.0512c1.2963,2.247,3.0961,5.3621,5.0605,6.0392c1.2433,0.4285,2.5462,0.2964,3.6263,-0.2527c1.0843,-0.5619,1.9706,-1.5322,2.3889,-2.8054c0.4184,-1.2733,0.2852,-2.595,-0.2592,-3.7182C22.1027,3.3798,21.1553,2.4721,19.912,2.0436zM21.3733,16.2369c-1.0296,-1.1138,-3.548,-1.3687,-5.3686,-1.5562c-0.299,-0.0289,-0.5848,-0.0573,-0.8504,-0.0921c0.0193,0.2735,0.0315,0.5672,0.0497,0.8816c0.0832,1.872,0.2004,4.4683,1.2236,5.5751c0.6475,0.7005,1.5173,1.0661,2.3828,1.0903c0.8723,0.0176,1.7534,-0.2921,2.4374,-0.9553c0.684,-0.6632,1.0341,-1.5472,1.0581,-2.4473C22.3232,17.8398,22.0208,16.9374,21.3733,16.2369z" fill="#6486c4" opacity="0.2"/>
    <path d="M11.2422,4.7896c-0.0102,-0.0208,-0.0206,-0.0426,-0.0308,-0.0632c0.3488,-0.167,0.7185,-0.3602,1.1047,-0.5638c2.359,-1.2217,5.6192,-2.9187,7.596,-2.0755c1.2433,0.5304,2.1907,1.6537,2.7393,3.028c0.0302,0.0771,0.0587,0.1553,0.0863,0.2339l-0.0382,-0.0272c-1.3021,-0.9278,-3.7081,-1.0211,-7.1512,-1.0211c-0.8981,0,-1.8606,0.2215,-2.861,0.2864l-0.6223,0.0456l0.1129,-0.3478C11.8564,4.4626,11.5431,4.6342,11.2422,4.7896zM16.0048,14.6807c-0.1136,-0.011,-0.2246,-0.022,-0.3341,-0.0332c1.9449,1.475,5.0771,4.2646,5.0811,6.9306c0.1738,-0.1147,0.3403,-0.2465,0.4961,-0.3975c0.684,-0.6632,1.0341,-1.5472,1.0581,-2.4473c0.0172,-0.8934,-0.2852,-1.7958,-0.9327,-2.4964C20.3437,15.1231,17.8253,14.8682,16.0048,14.6807zM4.7413,6.8366c2.6636,3.8434,5.614,8.9957,4.913,12.1493c0.5161,-0.4888,1.6831,-1.0681,1.9972,-1.707c0.6525,-1.3528,0.8227,-2.9542,0.324,-4.5009C11.2431,10.5067,7.3127,8.4221,4.7413,6.8366z" fill="#6486c4" opacity="0.2"/>
    <path d="M18.7937,22.9991c-1.1396,-0.0319,-2.197,-0.5149,-2.9782,-1.3601c-1.2408,-1.3423,-1.3637,-4.1092,-1.4535,-6.1295c-0.0059,-0.1,-0.0115,-0.2081,-0.0171,-0.3143l-0.0024,-0.0464c-0.0092,-0.1755,-0.0177,-0.3403,-0.0289,-0.4979c-0.0183,-0.2594,0.0769,-0.5106,0.2613,-0.6893c0.1572,-0.1525,0.363,-0.2364,0.5792,-0.2364c0.0352,0,0.0712,0.0023,0.107,0.0069c0.2576,0.0338,0.5362,0.0614,0.8228,0.0891l0.0293,0.003c1.9549,0.2013,4.6318,0.477,5.8723,1.8191c0.7726,0.8361,1.1858,1.9395,1.1633,3.1069c-0.0315,1.1761,-0.5007,2.2617,-1.3214,3.0574C21.0344,22.5766,19.9884,23,18.8822,23C18.8526,23,18.8233,22.9997,18.7937,22.9991zM16.0517,15.5535c0.0737,1.6473,0.1978,4.0434,0.9882,4.8984c0.4716,0.5102,1.1086,0.8017,1.7936,0.8209c0.0229,0.0006,0.0459,0.0009,0.0688,0.0009c0.66,0,1.2872,-0.2557,1.766,-0.7201c0.4931,-0.478,0.7754,-1.132,0.7949,-1.8416c0.013,-0.709,-0.2363,-1.3775,-0.7021,-1.8815C19.9696,15.9742,17.646,15.7179,16.0517,15.5535zM6.5216,21.4019c-1.0291,0,-2.0285,-0.2416,-2.9705,-0.7181C1.9728,19.87,0.7994,18.4775,0.2464,16.7624c-0.8877,-2.7528,0.8154,-6.954,2.0589,-10.0215c0.0677,-0.1741,0.1388,-0.3535,0.2083,-0.5287c0.1162,-0.2929,0.226,-0.5695,0.3253,-0.8343c0.091,-0.2427,0.2815,-0.4287,0.5227,-0.5103c0.0851,-0.0289,0.1741,-0.0436,0.2642,-0.0436c0.1603,0,0.3168,0.0466,0.4522,0.1348c0.3771,0.2454,0.7882,0.4951,1.2113,0.7508l0.0403,0.0247c2.7678,1.6963,6.5584,4.0194,7.4464,6.773c0.5471,1.6964,0.4162,3.5268,-0.3686,5.1541c-0.8012,1.6297,-2.1591,2.8369,-3.8239,3.4C7.9155,21.2873,7.2218,21.4019,6.5216,21.4019zM4.0379,6.9576c-0.0562,0.1416,-0.1133,0.2862,-0.1708,0.434c-1.0798,2.6639,-2.7106,6.6869,-2.0196,8.8294c0.4118,1.277,1.2841,2.3131,2.4562,2.9175c0.7029,0.3557,1.4494,0.5363,2.2179,0.5363c0.521,0,1.0369,-0.0851,1.5334,-0.2531c1.2364,-0.4182,2.2459,-1.3163,2.8426,-2.5287c0.586,-1.2162,0.6847,-2.5817,0.2776,-3.8442c-0.6911,-2.143,-4.3139,-4.3633,-6.7111,-5.8326l-0.0358,-0.022C4.2975,7.1153,4.1672,7.0364,4.0379,6.9576zM18.4146,12.3868c-0.6051,0,-1.2068,-0.1016,-1.7882,-0.3019c-2.2653,-0.7809,-4.145,-4.0392,-5.5175,-6.4183c-0.0756,-0.1269,-0.1542,-0.2606,-0.231,-0.3915l-0.0173,-0.0294c-0.1269,-0.2162,-0.2468,-0.4203,-0.3633,-0.6104c-0.1351,-0.2203,-0.1661,-0.488,-0.0851,-0.7344c0.081,-0.2465,0.2637,-0.4406,0.5012,-0.5325c0.3407,-0.1317,0.7197,-0.292,1.0787,-0.445l0.0367,-0.0154C14.0602,2.058,16.5881,1,18.6938,1c0.5531,0,1.0534,0.0758,1.4871,0.2252c1.4007,0.4828,2.5453,1.504,3.2227,2.8753c0.6712,1.3848,0.7798,2.9412,0.306,4.3833c-0.4714,1.4346,-1.4685,2.6067,-2.8073,3.3004C20.1156,12.1842,19.2788,12.3868,18.4146,12.3868zM12.5546,4.7779c1.171,2.0296,2.9394,5.0947,4.6096,5.6703c0.4067,0.1402,0.8274,0.2113,1.2504,0.2113c0.6024,0,1.1852,-0.141,1.7321,-0.419c0.9375,-0.4859,1.6354,-1.3055,1.9646,-2.3076c0.33,-1.004,0.2539,-2.0895,-0.2141,-3.0565c-0.4758,-0.9618,-1.2766,-1.6775,-2.2542,-2.0145c-0.2657,-0.0916,-0.5863,-0.1381,-0.9532,-0.1381c-1.7634,0,-4.2254,1.0303,-6.023,1.7826l-0.2182,0.0925C12.4834,4.6581,12.5187,4.7177,12.5546,4.7779z" fill="#6486c4"/>
  </g>
</svg>
