<?xml version="1.0" encoding="UTF-8"?>
<!DOCTYPE svg PUBLIC "-//W3C//DTD SVG 1.1//EN" "http://www.w3.org/Graphics/SVG/1.1/DTD/svg11.dtd">
<svg version="1.1" id="Layer_1" xmlns="http://www.w3.org/2000/svg" xmlns:xlink="http://www.w3.org/1999/xlink" x="0px" y="0px" width="24px" height="24px" viewBox="0 0 24 24" enable-background="new 0 0 24 24" xml:space="preserve">
  <g id="icon">
    <g>
      <path d="M9.7545,9.1069C9.6699,9.0337,9.558,9,9.4461,9L6,9V7.1124C6,5.3962,7.3911,4,9.101,4H18V2H9.101C6.2883,2,4,4.2934,4,7.1124V9L0.4739,9c-0.1134,0,-0.2268,0.0352,-0.3114,0.1108c-0.1814,0.1622,-0.2057,0.4175,-0.0811,0.6038l4.5726,6.8404c0.0854,0.1278,0.2282,0.2041,0.3819,0.2041c0.1566,0,0.3008,-0.0785,0.3858,-0.21l4.4227,-6.8403C9.9658,9.521,9.938,9.2656,9.7545,9.1069z" fill="#6485c3"/>
      <path d="M23.9186,14.2854L19.3459,7.445c-0.0854,-0.1278,-0.2282,-0.2041,-0.3819,-0.2041c-0.1566,0,-0.3008,0.0785,-0.3858,0.21l-4.4227,6.8403c-0.1214,0.1879,-0.0935,0.4433,0.0899,0.6019c0.0846,0.0732,0.1966,0.1069,0.3084,0.1069H18v1.8876C18,18.6038,16.6089,20,14.899,20H6v2h8.899c2.8127,0,5.101,-2.2934,5.101,-5.1124V15h3.5257c0.1134,0,0.2268,-0.0351,0.3114,-0.1106C24.0188,14.7274,24.0432,14.4718,23.9186,14.2854z" fill="#6485c3"/>
    </g>
  </g>
</svg>
