<?xml version="1.0" encoding="UTF-8"?>
<!DOCTYPE svg PUBLIC "-//W3C//DTD SVG 1.1//EN" "http://www.w3.org/Graphics/SVG/1.1/DTD/svg11.dtd">
<svg version="1.1" id="Layer_1" xmlns="http://www.w3.org/2000/svg" xmlns:xlink="http://www.w3.org/1999/xlink" x="0px" y="0px" width="24px" height="24px" viewBox="0 0 24 24" enable-background="new 0 0 24 24" xml:space="preserve">
  <g id="main">
    <g id="icon">
      <path d="M9.822,2.088L9.734,2.3L9.734,9.634L2.3,9.634L2.088,9.722L2,9.934L2,11.95L2.088,12.16L2.3,12.25L9.734,12.25L9.734,19.68L9.822,19.89L10.03,19.98L11.03,19.98L11.04,19.82L11.16,19.43L11.35,19.07L11.61,18.73L11.93,18.43L12.3,18.15L12.35,18.13L12.35,12.25L19.68,12.25L19.89,12.16L19.98,11.95L19.98,9.934L19.89,9.722L19.68,9.634L12.35,9.634L12.35,2.3L12.26,2.088L12.05,2L10.03,2z" fill="#656D78"/>
    </g>
    <g id="overlay">
      <g>
        <path d="M16.935,19.3286c2.1853,0,4.8987,1.2002,4.8987,1.2002s0.0082,0.8597,0.0082,1.1031c0,1.2294,-2.1822,2.3853,-4.907,2.3853c-2.7248,0,-4.9337,-1.156,-4.9337,-2.3853c0,-0.2084,-0.0013,-1.058,-0.0013,-1.058S14.672,19.3286,16.935,19.3286z" fill-rule="evenodd" fill="#F6BB43"/>
        <path d="M16.935,18.0133c2.7248,0,4.8987,0.9966,4.8987,2.226c0,1.2294,-2.1739,2.0521,-4.8987,2.0521c-2.7248,0,-4.9337,-0.8227,-4.9337,-2.0521C12.0013,19.0099,14.2102,18.0133,16.935,18.0133z" fill-rule="evenodd" fill="#FFCE55"/>
        <path d="M16.9172,22.2137c-2.3792,0,-4.5338,-0.7984,-4.8779,-1.6679c0.0623,1.0348,2.2253,1.9983,4.8865,1.9983c2.7004,0,4.8895,-0.988,4.8895,-2.044c0,-0.0341,-0.0025,-0.0681,-0.007,-0.1018C21.6144,21.3388,19.4293,22.2137,16.9172,22.2137z" fill-rule="evenodd" fill="#FFFFFF"/>
        <path d="M21.8338,20.5288c0,0,-0.0135,-0.0059,-0.0385,-0.0167c0.0244,-0.0886,0.0385,-0.1794,0.0385,-0.2729c0,-0.8363,-1.0432,-1.5646,-2.5444,-1.945L15,22.0105v1.8186c0.6,0.1199,1.2395,0.188,1.8985,0.188c2.7248,0,4.9252,-1.156,4.9252,-2.3853C21.8238,21.3884,21.8338,20.5288,21.8338,20.5288z" fill-rule="evenodd" fill="#24282D" opacity="0.06"/>
      </g>
      <g>
        <path d="M19.1227,16.328c2.1853,0,4.8987,1.2002,4.8987,1.2002s0.0082,0.8597,0.0082,1.1031c0,1.2294,-2.1822,2.3854,-4.907,2.3854c-2.7248,0,-4.9337,-1.156,-4.9337,-2.3854c0,-0.2084,-0.0013,-1.058,-0.0013,-1.058S16.8597,16.328,19.1227,16.328z" fill-rule="evenodd" fill="#F6BB43"/>
        <path d="M21.9,17.3551c-0.9,-0.237,-1.8567,-0.4373,-2.7496,-0.4373c-2.263,0,-4.9489,1.2452,-4.9489,1.2452s-0.0056,0.8497,-0.0056,1.058c0,1.2294,2.2331,2.3854,4.958,2.3854c1.0097,0,1.8461,-0.1588,2.7461,-0.4212V17.3551z" fill-rule="evenodd" fill="#24282D" opacity="0.06"/>
        <path d="M19.1227,15.0126c2.7248,0,4.8987,0.9966,4.8987,2.226c0,1.2294,-2.1739,2.0521,-4.8987,2.0521c-2.7248,0,-4.9337,-0.8227,-4.9337,-2.0521C14.189,16.0092,16.3979,15.0126,19.1227,15.0126z" fill-rule="evenodd" fill="#FFCE55"/>
        <path d="M19.1049,19.2131c-2.3792,0,-4.5338,-0.7984,-4.8779,-1.6679c0.0623,1.0348,2.2253,1.9983,4.8865,1.9983c2.7004,0,4.8895,-0.988,4.8895,-2.044c0,-0.0341,-0.0025,-0.0681,-0.007,-0.1018C23.8021,18.3382,21.617,19.2131,19.1049,19.2131z" fill-rule="evenodd" fill="#FFFFFF"/>
        <path d="M24.0215,17.5281c0,0,-0.0135,-0.0059,-0.0385,-0.0167c0.0244,-0.0886,0.0385,-0.1794,0.0385,-0.2729c0,-0.8363,-1.0371,-1.5646,-2.5383,-1.945L17.2,19.0099v1.8186c0.6,0.1199,1.2334,0.188,1.8924,0.188c2.7248,0,4.9222,-1.156,4.9222,-2.3853C24.0145,18.3878,24.0215,17.5281,24.0215,17.5281z" fill-rule="evenodd" fill="#24282D" opacity="0.06"/>
      </g>
    </g>
  </g>
</svg>
