<?xml version="1.0" encoding="UTF-8"?>
<!DOCTYPE svg PUBLIC "-//W3C//DTD SVG 1.1//EN" "http://www.w3.org/Graphics/SVG/1.1/DTD/svg11.dtd">
<svg version="1.1" id="Layer_1" xmlns="http://www.w3.org/2000/svg" xmlns:xlink="http://www.w3.org/1999/xlink" x="0px" y="0px" width="24px" height="24px" viewBox="0 0 24 24" enable-background="new 0 0 24 24" xml:space="preserve">
  <g id="main">
    <g id="icon">
      <path d="M10.62,6.078L10.3,6.297L10.08,6.616L10,7.009L10,10L14.5,10L14.5,8.5L17.9,8.5L18,8.5L18,7.009L17.92,6.616L17.7,6.297L17.38,6.078L16.99,6L11.01,6z" fill="#6485c3"/>
      <path d="M1.222,1.316L0.95,1.397L0.6969,1.525L0.4719,1.709L0.2781,1.941L0.1281,2.225L0.03438,2.559L0,2.941L0,18L3,18L3,15L8.534,15L8.388,14.92L10.65,11L3,11L3,2.941L2.966,2.559L2.872,2.225L2.722,1.941L2.528,1.709L2.303,1.525L2.05,1.397L1.778,1.316L1.5,1.291M20.22,3.866L19.95,3.944L19.7,4.075L19.47,4.256L19.28,4.491L19.13,4.775L19.03,5.106L19,5.488L19,8.5L19.5,8.5L22,8.5L22,5.488L21.97,5.106L21.87,4.775L21.72,4.491L21.53,4.256L21.3,4.075L21.05,3.944L20.78,3.866L20.5,3.838M13.51,12.1L13.68,12.17L13.85,12.18L14.17,12.1L14.41,11.86L14.48,11.7L14.5,11.52L14.5,11L11.61,11z" fill="#7b7b7b"/>
      <path d="M5.6,4.784L5.131,4.922L4.719,5.131L4.378,5.406L4.119,5.741L3.953,6.131L3.9,6.553L3.956,6.972L4.116,7.381L4.366,7.769L4.703,8.122L5.116,8.431L5.594,8.684L6.128,8.872L6.688,8.978L7.228,8.997L7.741,8.934L8.206,8.797L8.619,8.588L8.959,8.313L9.222,7.975L9.384,7.584L9.438,7.166L9.381,6.744L9.222,6.334L8.972,5.95L8.634,5.594L8.225,5.288L7.747,5.031L7.209,4.844L6.65,4.741L6.109,4.722z" fill="#6485c3"/>
    </g>
    <g id="overlay">
      <polygon points="23.5622,14.366 22.5622,12.634 18,15.2679 18,10 16,10 16,15.2679 11.4378,12.634 10.4378,14.366 15,17 10.4378,19.634 11.4378,21.366 16,18.732 16,24 18,24 18,18.732 22.5622,21.366 23.5622,19.634 19,17" fill="#eeac55" stroke-linejoin="miter"/>
    </g>
  </g>
</svg>
