<?xml version="1.0" encoding="UTF-8"?>
<!DOCTYPE svg PUBLIC "-//W3C//DTD SVG 1.1//EN" "http://www.w3.org/Graphics/SVG/1.1/DTD/svg11.dtd">
<svg version="1.1" id="Layer_1" xmlns="http://www.w3.org/2000/svg" xmlns:xlink="http://www.w3.org/1999/xlink" x="0px" y="0px" width="24px" height="24px" viewBox="0 0 24 24" enable-background="new 0 0 24 24" xml:space="preserve">
  <g id="main">
    <g id="icon">
      <path d="M3.6,9.622L3.6,21.4L8.872,21.4L8.988,21.04L9.1,20.79L9.1,15.4L12.08,15.4L12.08,15.37L11.91,14.42L11.86,13.44L11.88,12.7L12.01,11.87L12.29,11L12.51,10.57L12.78,10.16L13.13,9.772L13.53,9.438L13.98,9.15L14.48,8.916L15.03,8.734L15.62,8.603L16.27,8.525L16.96,8.5L17,8.5L10.99,3.878z" fill="#ffffff" opacity="0.5"/>
      <path d="M3,10.09L3,22L8.7,22L8.744,21.79L8.988,21.04L9.363,20.23L9.894,19.39L10,19.27L10,16L12,16L12,17.51L12.09,17.45L12.71,17.12L12.34,16.28L12.08,15.37L11.91,14.42L11.89,14L8,14L8,20L5,20L5,8.534z" fill="#7b7b7b"/>
      <path d="M-0,8.738L0,8.763L1.316,10.38L10.99,2.866L18.49,8.634L18.95,8.734L19.5,8.916L20,9.15L20.45,9.434L20.85,9.772L20.99,9.928L22,8.672L10.98,0.1594z" fill="#6485c3"/>
    </g>
    <g id="overlay">
      <path d="M10.4986,24c-0.1416,0,-0.277,-0.0591,-0.3714,-0.1622c-0.0905,-0.0987,-0.1363,-0.2312,-0.1256,-0.3635l0.0284,-0.3526c0.1053,-1.3063,0.7624,-3.6843,3.9794,-4.9344c0.3284,-0.1318,0.5737,-0.3571,0.6374,-0.5868c0.0323,-0.1164,0.0134,-0.2191,-0.0578,-0.314c-0.7925,-1.0033,-1.2313,-2.3716,-1.2313,-3.847c0,-1.7007,0.428,-3.4394,3.6029,-3.4394h0.0528c3.1863,0,3.6158,1.7386,3.6158,3.4394c0,1.4757,-0.4406,2.8441,-1.2406,3.8532c-0.0668,0.0889,-0.0858,0.1912,-0.0538,0.3071c0.0637,0.2299,0.3103,0.4555,0.6435,0.5886c3.2262,1.2488,3.8858,3.6269,3.9916,4.9333l0.0285,0.3525c0.0107,0.1322,-0.0351,0.2647,-0.1255,0.3634c-0.0946,0.1033,-0.2303,0.1626,-0.3724,0.1626H10.4986z" fill="#6485c3"/>
    </g>
  </g>
</svg>
