<?xml version="1.0" encoding="UTF-8"?>
<!DOCTYPE svg PUBLIC "-//W3C//DTD SVG 1.1//EN" "http://www.w3.org/Graphics/SVG/1.1/DTD/svg11.dtd">
<svg version="1.1" id="Layer_1" xmlns="http://www.w3.org/2000/svg" xmlns:xlink="http://www.w3.org/1999/xlink" x="0px" y="0px" width="24px" height="24px" viewBox="0 0 24 24" enable-background="new 0 0 24 24" xml:space="preserve">
  <g id="main">
    <g id="icon">
      <path d="M15.82,1.931L14.9,2.153L13.97,2.444L13.03,2.784L11.29,3.494L10.28,3.913L10.85,4.875L11.82,6.522L12.36,7.369L12.94,8.181L13.54,8.931L14.17,9.575L14.69,9.978L15.38,8.5L20.59,8.5L20.64,8.428L21,7.606L21.2,6.728L21.21,5.853L21.07,5.003L20.76,4.2L20.32,3.475L19.75,2.844L19.06,2.328L18.25,1.956L17.52,1.806L16.7,1.806M2.828,6.566L1.975,8.731L1.569,9.884L1.216,11.05L0.9469,12.19L0.7938,13.28L0.7875,14.3L0.85,14.77L0.9594,15.2L1.156,15.72L1.397,16.2L1.678,16.65L2,17.07L2.356,17.44L2.744,17.78L3.597,18.33L4.544,18.71L5.041,18.82L5.547,18.89L6.063,18.91L6.581,18.88L7.106,18.78L7.625,18.64L8.128,18.44L8.6,18.19L9.041,17.9L9.444,17.57L9.809,17.21L10.14,16.81L10.68,15.92L11.04,14.95L11.23,13.93L11.24,13.4L11.21,12.87L11.12,12.33L10.98,11.8L10.81,11.38L10.59,10.96L9.994,10.15L9.234,9.366L8.356,8.613L7.397,7.894L6.397,7.216L4.456,6L3.325,5.297z" fill="#ffffff"/>
      <path d="M15.82,1.931L14.9,2.153L13.97,2.444L13.03,2.784L11.29,3.494L10.28,3.913L10.85,4.875L11.82,6.522L12.36,7.369L12.94,8.181L13.54,8.931L14.17,9.575L14.69,9.978L15.38,8.5L20.59,8.5L20.64,8.428L21,7.606L21.2,6.728L21.21,5.853L21.07,5.003L20.76,4.2L20.32,3.475L19.75,2.844L19.06,2.328L18.25,1.956L17.52,1.806L16.7,1.806M2.828,6.566L1.975,8.731L1.569,9.884L1.216,11.05L0.9469,12.19L0.7938,13.28L0.7875,14.3L0.85,14.77L0.9594,15.2L1.156,15.72L1.397,16.2L1.678,16.65L2,17.07L2.356,17.44L2.744,17.78L3.597,18.33L4.544,18.71L5.041,18.82L5.547,18.89L6.063,18.91L6.581,18.88L7.106,18.78L7.625,18.64L8.128,18.44L8.6,18.19L9.041,17.9L9.444,17.57L9.809,17.21L10.14,16.81L10.68,15.92L11.04,14.95L11.23,13.93L11.24,13.4L11.21,12.87L11.12,12.33L10.98,11.8L10.81,11.38L10.59,10.96L9.994,10.15L9.234,9.366L8.356,8.613L7.397,7.894L6.397,7.216L4.456,6L3.325,5.297z" fill="#6486c4" opacity="0.2"/>
      <path d="M15.82,1.963L14.9,2.238L13.97,2.6L13.03,3.022L11.29,3.9L10.28,4.416L10.31,4.475L11.16,4.013L11.06,4.331L11.63,4.288L12.98,4.134L13.63,4.059L14.25,4.025L16.44,4.053L18.27,4.175L19.04,4.291L19.73,4.456L20.31,4.678L20.81,4.963L20.84,4.988L20.76,4.772L20.32,3.875L19.75,3.094L19.06,2.459L18.67,2.203L18.25,1.997L17.9,1.878L17.52,1.809L16.7,1.809M5.266,7.722L6.172,9.169L7.013,10.66L7.753,12.16L8.35,13.62L8.759,15.02L8.881,15.69L8.941,16.32L8.931,16.93L8.85,17.49L9.294,17.13L9.834,16.76L10.34,16.35L10.54,16.14L10.68,15.92L11.04,14.95L11.23,13.93L11.24,13.4L11.21,12.87L11.12,12.33L10.98,11.8L10.82,11.41L10.6,11.03L9.991,10.27L9.206,9.541L8.294,8.838L7.303,8.163L6.281,7.522L4.347,6.35z" fill="#6486c4" opacity="0.2"/>
      <path d="M16.4,1.044L15.63,1.163L14.85,1.347L14.06,1.581L12.49,2.147L11.03,2.75L10.99,2.763L10,3.172L9.722,3.363L9.544,3.659L9.509,4.006L9.622,4.331L9.956,4.891L9.972,4.919L10.18,5.278L11.21,7.016L11.79,7.909L12.41,8.769L13.06,9.559L13.75,10.25L14.35,10.7L15.03,9.256L14.58,8.888L14.01,8.275L13.45,7.563L12.41,5.988L11.51,4.463L11.41,4.3L11.61,4.216L12.94,3.669L14.38,3.138L15.82,2.738L16.5,2.622L17.13,2.581L17.6,2.613L18.01,2.706L18.65,3.003L19.21,3.416L19.69,3.938L20.07,4.553L20.33,5.234L20.44,5.941L20.43,6.653L20.27,7.356L19.98,8.009L19.64,8.5L21.45,8.5L21.73,7.859L21.87,7.359L21.96,6.853L21.99,5.831L21.82,4.819L21.45,3.844L20.91,2.963L20.23,2.219L19.42,1.628L18.97,1.394L18.5,1.206L17.86,1.053L17.14,1M3.081,4.547L2.791,4.725L2.603,5.013L2.303,5.778L2.113,6.263L1.222,8.528L0.8,9.741L0.4375,10.96L0.1656,12.18L0.01875,13.34L0.02813,14.44L0.1,14.96L0.225,15.45L0.4438,16.03L0.7094,16.57L1.025,17.08L1.388,17.56L1.794,17.99L2.244,18.39L2.731,18.74L3.256,19.04L3.913,19.33L4.588,19.54L5.275,19.66L5.978,19.7L6.934,19.62L7.869,19.39L8.428,19.17L8.956,18.89L9.453,18.57L9.919,18.2L10.34,17.78L10.73,17.32L11.08,16.82L11.38,16.27L11.62,15.71L11.8,15.13L11.93,14.53L12,13.93L12.02,13.33L11.97,12.73L11.87,12.14L11.71,11.55L11.53,11.08L11.29,10.62L10.66,9.731L9.863,8.884L8.944,8.081L7.947,7.322L6.909,6.609L4.884,5.341L4.85,5.319L3.738,4.628L3.541,4.538L3.325,4.506M4.059,6.678L4.091,6.697L5.891,7.825L6.838,8.463L7.753,9.141L8.597,9.844L9.325,10.57L9.888,11.31L10.09,11.68L10.24,12.04L10.44,12.93L10.46,13.82L10.31,14.71L9.991,15.57L9.509,16.35L8.906,17L8.191,17.52L7.384,17.89L6.691,18.06L5.978,18.12L5.453,18.09L4.938,17.99L4.434,17.84L3.944,17.63L3.194,17.14L2.559,16.52L2.053,15.79L1.694,14.95L1.6,14.57L1.55,14.14L1.575,13.2L1.741,12.17L2.009,11.08L2.356,9.975L2.75,8.878L3.544,6.859L3.7,6.463M13.17,13.17L13.17,13.2L13.21,13.11M19.57,20.43L20.01,20.08L20.08,19.99z" fill="#6486c4"/>
    </g>
    <g id="overlay">
      <path d="M20.2702,15.147h3.1965l-10.1074,8.5813c-0.1106,0.0914,-0.2605,-0.036,-0.2072,-0.1762l2.6445,-6.6894h-2.6963L16.3347,10H24L20.2702,15.147z" fill="#eeac55"/>
    </g>
  </g>
</svg>
