<?xml version="1.0" encoding="UTF-8"?>
<!DOCTYPE svg PUBLIC "-//W3C//DTD SVG 1.1//EN" "http://www.w3.org/Graphics/SVG/1.1/DTD/svg11.dtd">
<svg version="1.1" id="Layer_1" xmlns="http://www.w3.org/2000/svg" xmlns:xlink="http://www.w3.org/1999/xlink" x="0px" y="0px" width="32px" height="32px" viewBox="0 0 32 32" enable-background="new 0 0 32 32" xml:space="preserve">
  <g id="icon">
    <path d="M1.009,28.088c-0.128,-0.265,1.177,-1.427,2.304,-3.858c0.94,-2.026,0.052,-0.791,1.168,-2.995c1.737,-3.43,2.192,-3.382,2.395,-3.512c0.598,0.164,3.856,1.753,4.321,2.191c0.099,0.094,0.413,0.548,-1.198,4.167c-1.003,2.254,-0.529,0.62,-1.518,2.6c-1.18,2.364,-1.307,4.296,-1.676,4.316C5.63,31.062,1.409,28.919,1.009,28.088z" fill-rule="evenodd" fill="#3E79B4"/>
    <path d="M7.857,17.296l3.961,-8.838l3.211,1.564l-3.964,8.844L7.857,17.296zM23.521,5.842l-2.497,-1.216c-0.313,-0.152,-0.69,-0.022,-0.842,0.29l-0.14,0.287c-0.121,-0.025,-0.694,-0.271,-1.138,-0.455c0.028,-0.056,0.044,-0.089,0.045,-0.09c0.132,-0.27,0.169,-0.347,0.178,-0.366c0.152,-0.313,0.022,-0.69,-0.291,-0.842c0,0,-3.684,-1.795,-4.193,-2.043C11.651,-0.172,5.898,3.26,5.068,4.576c2.485,-0.056,2.492,-1.315,6.979,1.068c-0.037,0.758,-0.567,1.165,-0.567,1.165c-0.152,0.313,-0.022,0.69,0.291,0.842l4.059,1.977c0.313,0.152,0.69,0.022,0.842,-0.29l0.263,-0.606l1.102,0.591l-0.145,0.297c-0.152,0.313,-0.022,0.69,0.291,0.842l2.497,1.216c0.313,0.152,0.69,0.022,0.842,-0.29l2.29,-4.705C23.964,6.371,23.833,5.994,23.521,5.842z" fill-rule="evenodd" fill="#797979"/>
    <path d="M14.313,23.89c1.813,0.951,3.584,0.522,5.336,0.298c2.817,-0.361,5.63,-0.76,8.441,-1.168c0.483,-0.07,0.794,0.022,1.06,0.464c0.28,0.467,0.629,0.899,0.998,1.299c0.136,0.147,0.414,0.213,0.625,0.207c0.084,-0.002,0.246,-0.308,0.227,-0.457c-0.237,-1.889,-0.496,-3.775,-0.764,-5.66c-0.021,-0.148,-0.021,-0.67,-0.323,-0.623c-0.302,0.047,-0.57,0.652,-0.642,0.966c-0.314,1.363,-1.135,1.85,-2.488,1.986c-3.143,0.316,-6.277,0.755,-9.397,1.258C16.429,22.613,14.809,23.28,14.313,23.89zM28.925,17.093c-0.049,-0.323,-0.761,-0.609,-1.084,-0.749c-1.502,-0.65,-3.014,-1.275,-4.533,-1.884c-0.195,-0.078,-0.475,-0.282,-0.672,-0.013c-0.197,0.269,0.049,0.507,0.083,0.759c0.007,0.048,0.051,0.1,0.092,0.134c1.336,1.101,1.066,2.337,0.348,3.655c-0.317,0.582,-0.448,1.033,-0.764,1.812c1.984,-0.241,2.325,-0.32,2.325,-0.32s0.114,-0.264,0.127,-0.317c0.418,-1.722,1.229,-2.952,3.243,-2.735C28.27,17.454,28.974,17.416,28.925,17.093zM19.309,31c2.326,-1.663,2.655,-4.001,3.774,-6.327c-2.263,0.251,-1.653,0.217,-2.228,0.247C19.877,26.528,19.186,28.885,19.309,31z" fill="#58595B"/>
  </g>
</svg>
