<?xml version="1.0" encoding="UTF-8"?>
<!DOCTYPE svg PUBLIC "-//W3C//DTD SVG 1.1//EN" "http://www.w3.org/Graphics/SVG/1.1/DTD/svg11.dtd">
<svg version="1.1" id="Layer_1" xmlns="http://www.w3.org/2000/svg" xmlns:xlink="http://www.w3.org/1999/xlink" x="0px" y="0px" width="24px" height="24px" viewBox="0 0 24 24" enable-background="new 0 0 24 24" xml:space="preserve">
  <g id="icon">
    <path d="M1.615,2.003l6.284,-0.987c0.068,-0.011,0.136,-0.012,0.204,-0.003l7.701,0.975c0.064,0.008,0.129,0.008,0.193,-0.001l6.175,-0.87c0.438,-0.062,0.829,0.278,0.829,0.72v19.532c0,0.362,-0.266,0.669,-0.625,0.72l-6.279,0.897c-0.064,0.009,-0.129,0.01,-0.193,0.002l-7.807,-0.976c-0.064,-0.008,-0.129,-0.007,-0.193,0.002l-6.073,0.868c-0.438,0.063,-0.83,-0.277,-0.83,-0.72V2.722C1,2.364,1.261,2.059,1.615,2.003z" fill="#F6F7FB"/>
    <polygon points="4.98,19.193 7.95,15.885 9.57,14.722 10.384,10.119 8.04,10.341 3,11.529 3,20.802 4.55,20.546" fill="#48CFAE" stroke-linejoin="miter"/>
    <polygon points="16.92,9.097 15.6,9.626 11.845,9.981 10.74,15.169 8.04,17.494 5.836,20.333 8.4,19.908 15.51,20.802 18.89,20.307" fill="#F2DFD5" stroke-linejoin="miter"/>
    <polygon points="20.074,20.134 21,19.998 21,7.463 17.826,8.734" fill="#48CFAE" stroke-linejoin="miter"/>
    <polygon points="8.04,8.463 15.6,7.838 21,5.727 21,3.376 15.789,4.092 8.206,3.198 3,3.993 3,9.735" fill="#5D9CEC" stroke-linejoin="miter"/>
    <polygon points="17.826,8.734 21,7.463 21,5.727 15.6,7.838 8.04,8.463 3,9.735 3,11.529 8.04,10.341 10.384,10.119 9.57,14.722 7.95,15.885 4.98,19.193 4.55,20.546 5.836,20.333 8.04,17.494 10.74,15.169 11.845,9.981 15.6,9.626 16.92,9.097 18.89,20.307 20.074,20.134" fill="#F6BB43" stroke-linejoin="miter"/>
    <path d="M8,22l-6.072,0.867c-0.49,0.07,-0.928,-0.31,-0.928,-0.805V2.795c0,-0.4,0.291,-0.741,0.687,-0.803L8,1V22zM16,1.986V23l6.302,-0.9c0.4,-0.057,0.698,-0.4,0.698,-0.805V1.935c0,-0.494,-0.437,-0.874,-0.926,-0.805L16,1.986z" fill="#231F20" opacity="0.12"/>
  </g>
</svg>
