<?xml version="1.0" encoding="UTF-8"?>
<!DOCTYPE svg PUBLIC "-//W3C//DTD SVG 1.1//EN" "http://www.w3.org/Graphics/SVG/1.1/DTD/svg11.dtd">
<svg version="1.1" id="Layer_1" xmlns="http://www.w3.org/2000/svg" xmlns:xlink="http://www.w3.org/1999/xlink" x="0px" y="0px" width="24px" height="24px" viewBox="0 0 24 24" enable-background="new 0 0 24 24" xml:space="preserve">
  <g id="main">
    <g id="icon">
      <path d="M14.06,0.2031L13.21,0.4563L12.39,0.8375L11.63,1.344L10.91,1.966L10.32,2.631L9.825,3.344L9.431,4.097L9.153,4.878L8.994,5.684L8.963,6.506L9.066,7.338L9.313,8.166L4.934,12.54L1.541,15.94L0.7094,16.77L0.4344,17.11L0.2344,17.48L0.1188,17.88L0.07813,18.29L0.1188,18.71L0.2344,19.1L0.4344,19.48L0.7094,19.82L2.263,21.37L2.6,21.64L2.975,21.84L3.372,21.96L3.784,22L4.197,21.96L4.597,21.84L4.972,21.64L5.309,21.37L6.084,20.59L9.534,17.14L11.5,15.18L11.5,13.5L12.5,13.5L12.5,13.32L12.53,12.73L12.62,12.15L12.77,11.59L12.97,11.06L13.23,10.55L13.53,10.07L13.87,9.622L14.26,9.206L14.68,8.831L15.15,8.497L15.64,8.203L16,8.038L15.9,8.025L15.44,7.875L15.01,7.628L14.63,7.284L14.34,6.897L14.14,6.472L14.03,6.022L14.01,5.563L14.08,5.103L14.22,4.663L14.45,4.247L14.76,3.872L17.83,0.7969L17.59,0.6781L16.71,0.3219L15.82,0.1281L14.93,0.09375M18.16,7.372L17.97,7.528L18.5,7.5L19.25,7.547L19.98,7.678L20.67,7.894L21.32,8.184L21.75,8.441L21.88,8.019L21.98,7.144L21.95,6.256L21.76,5.366L21.4,4.488L21.28,4.247M3.966,17.39L4.35,17.65L4.606,18.03L4.7,18.5L4.606,18.97L4.35,19.35L3.966,19.61L3.5,19.7L3.034,19.61L2.65,19.35L2.394,18.97L2.3,18.5L2.394,18.03L2.65,17.65L3.034,17.39L3.5,17.3z" fill="#7b7b7b"/>
    </g>
    <g id="overlay">
      <path d="M13,15v9h11v-9H13zM22,22h-7v-5h7V22z" fill="#eeac55"/>
      <rect x="15" y="17" width="7" height="5" fill="#ffffff" opacity="0.5"/>
      <rect x="17.7" y="18" width="1.6" height="3" fill="#eeac55"/>
      <path d="M21.3049,15v-1.6772c0,-1.4939,-1.2583,-2.7093,-2.8049,-2.7093s-2.8049,1.2154,-2.8049,2.7093V15H14v-1.6772C14,10.9392,16.0187,9,18.5,9s4.5,1.9392,4.5,4.3228V15H21.3049z" fill="#7b7b7b"/>
    </g>
  </g>
</svg>
