<?xml version="1.0" encoding="UTF-8"?>
<!DOCTYPE svg PUBLIC "-//W3C//DTD SVG 1.1//EN" "http://www.w3.org/Graphics/SVG/1.1/DTD/svg11.dtd">
<svg version="1.1" id="Layer_1" xmlns="http://www.w3.org/2000/svg" xmlns:xlink="http://www.w3.org/1999/xlink" x="0px" y="0px" width="24px" height="24px" viewBox="0 0 24 24" enable-background="new 0 0 24 24" xml:space="preserve">
  <g id="icon">
    <path d="M1.922,23c-0.356,0,-0.697,-0.242,-0.848,-0.603c-0.144,-0.342,-0.076,-0.699,0.182,-0.953c1.422,-1.405,2.172,-2.461,3.121,-3.798c1.455,-2.05,4.388,-5.709,9.582,-10.84l0.138,-0.136l0.14,0.134c1.045,0.994,1.412,1.362,1.735,1.687c0.308,0.309,0.551,0.553,1.291,1.247l0.148,0.139l-0.144,0.142c-5.38,5.314,-9.032,8.243,-11.064,9.705c-1.28,0.921,-2.291,1.649,-3.665,3.006C2.357,22.906,2.145,23,1.922,23z" fill-rule="evenodd" fill="#CDD1DA"/>
    <path d="M18.583,11.776c-0.421,0,-0.817,-0.162,-1.115,-0.456l-5.122,-5.06c-0.615,-0.607,-0.615,-1.595,0,-2.202c0.298,-0.294,0.694,-0.456,1.115,-0.456c0.421,0,0.817,0.162,1.115,0.456l0.316,0.313c0.061,-0.217,0.178,-0.415,0.344,-0.579c0.014,-0.013,1.398,-1.378,1.486,-1.457C17.691,1.462,18.758,1,19.809,1c1.256,0,2.346,0.68,2.844,1.774c0.598,1.314,0.22,2.918,-1.011,4.288c-0.102,0.114,-1.525,1.524,-1.539,1.537c-0.165,0.163,-0.366,0.279,-0.586,0.339l0.181,0.179c0.615,0.607,0.615,1.595,0,2.202C19.4,11.614,19.004,11.776,18.583,11.776z" fill-rule="evenodd" fill="#5486C5"/>
    <path d="M1.922,23c0.223,0,0.435,-0.094,0.614,-0.271c1.374,-1.357,2.385,-2.084,3.665,-3.006c2.033,-1.463,5.011,-3.726,10.391,-9.04l0.144,-0.142l-0.148,-0.139c-0.739,-0.694,-0.983,-0.938,-1.291,-1.247c-0.089,-0.089,-0.182,-0.182,-0.291,-0.29L1.275,22.703C1.448,22.887,1.681,23,1.922,23z" fill-rule="evenodd" fill="#231F20" opacity="0.14"/>
    <path d="M17.469,11.32c0.298,0.294,0.694,0.456,1.115,0.456c0.421,0,0.817,-0.162,1.115,-0.456c0.615,-0.607,0.615,-1.595,0,-2.202l-0.181,-0.179c0.219,-0.061,0.42,-0.176,0.586,-0.339c0.014,-0.014,1.437,-1.424,1.539,-1.537c1.232,-1.371,1.61,-2.974,1.011,-4.288c-0.162,-0.356,-0.388,-0.668,-0.661,-0.927l-6.99,7.037L17.469,11.32z" fill-rule="evenodd" fill="#3E74AE" opacity="0.8"/>
  </g>
</svg>
