<?xml version="1.0" encoding="UTF-8"?>
<!DOCTYPE svg PUBLIC "-//W3C//DTD SVG 1.1//EN" "http://www.w3.org/Graphics/SVG/1.1/DTD/svg11.dtd">
<svg version="1.1" id="Layer_1" xmlns="http://www.w3.org/2000/svg" xmlns:xlink="http://www.w3.org/1999/xlink" x="0px" y="0px" width="32px" height="32px" viewBox="0 0 32 32" enable-background="new 0 0 32 32" xml:space="preserve">
  <g id="icon">
    <path d="M25.595,3.356H8.455c0,2.248,-1.832,4.069,-4.091,4.069v4.93C6.036,11.64,8.344,11.3,10.562,11.3c4.264,0,8.58,1.342,8.58,3.906v1.715c0,0.261,-0.044,0.51,-0.126,0.746c1.215,0.627,1.738,1.342,1.932,1.967h4.599c0,-2.248,1.832,-4.069,4.091,-4.069V7.377C27.546,7.079,25.894,5.436,25.595,3.356z" fill="#FFFFFF"/>
    <path d="M18.627,12.369c0.172,0.163,0.235,0.379,0.235,0.648c0,0.277,-0.084,0.514,-0.272,0.712c-0.237,-0.293,-0.544,-0.561,-0.909,-0.802v-0.958C18.091,12.072,18.455,12.206,18.627,12.369zM17.034,5.663c-2.584,0,-4.684,2.547,-4.736,5.712c1.52,0.132,2.969,0.437,4.139,0.911l-0.007,-0.55c-0.465,-0.09,-0.812,-0.238,-1.305,-0.446c-0.366,-0.153,-0.648,-0.365,-0.846,-0.636c-0.198,-0.271,-0.297,-0.578,-0.297,-0.922c0,-0.613,0.288,-1.106,0.865,-1.486c0.386,-0.255,0.868,-0.376,1.627,-0.433l0.029,-0.659h1.179v0.606c0.545,0.047,1,0.19,1.378,0.43c0.484,0.305,0.753,0.724,0.851,1.257l-1.198,0.238c-0.061,-0.31,-0.164,-0.547,-0.357,-0.712c-0.193,-0.165,-0.402,-0.274,-0.675,-0.326v2.25c0.409,0.102,0.744,0.181,0.913,0.236c0.322,0.107,0.599,0.331,0.817,0.495c0.218,0.165,0.38,0.36,0.498,0.587c0.117,0.227,0.183,0.472,0.183,0.736c0,0.581,-0.227,1.065,-0.717,1.453c-0.102,0.081,-0.205,0.156,-0.311,0.225c0.05,0.185,0.076,0.377,0.076,0.576v1.513c1.559,-0.955,2.631,-2.935,2.631,-5.224C21.773,8.274,19.651,5.663,17.034,5.663zM15.258,9.677c0,0.255,0.109,0.468,0.3,0.639c0.191,0.171,0.487,0.3,0.896,0.387V8.661c-0.409,0.044,-0.628,0.16,-0.85,0.349C15.382,9.197,15.258,9.42,15.258,9.677zM29.875,2H4.125C3.504,2,3,2.501,3,3.119v10.023c0.377,-0.3,0.839,-0.561,1.364,-0.786v-4.93c2.259,0,4.091,-1.822,4.091,-4.069h17.14c0.299,2.079,1.952,3.723,4.042,4.02v8.188c-2.259,0,-4.091,1.822,-4.091,4.069h-4.599c0.072,0.232,0.099,0.452,0.099,0.651v0.706h8.829c0.621,0,1.125,-0.501,1.125,-1.119V3.119C31,2.501,30.496,2,29.875,2z" fill="#3E79B4"/>
    <path d="M15.125,11.291c0.494,0.208,0.841,0.356,1.305,0.446l0.007,0.55c0.463,0.188,0.882,0.401,1.245,0.641v-0.958c0.409,0.103,0.773,0.237,0.945,0.4c0.172,0.163,0.235,0.379,0.235,0.648c0,0.277,-0.084,0.514,-0.272,0.712c0.224,0.277,0.387,0.578,0.474,0.901c0.106,-0.069,0.209,-0.145,0.311,-0.225c0.49,-0.388,0.717,-0.873,0.717,-1.453c0,-0.264,-0.066,-0.509,-0.183,-0.736c-0.117,-0.227,-0.28,-0.422,-0.498,-0.587c-0.218,-0.165,-0.495,-0.388,-0.817,-0.495c-0.169,-0.055,-0.504,-0.134,-0.913,-0.236v-2.25c0.273,0.053,0.481,0.161,0.675,0.326c0.193,0.165,0.296,0.402,0.357,0.712l1.198,-0.238c-0.099,-0.532,-0.367,-0.951,-0.851,-1.257c-0.378,-0.24,-0.833,-0.383,-1.378,-0.43v-0.606h-1.179l-0.029,0.659c-0.759,0.057,-1.241,0.178,-1.627,0.433c-0.576,0.38,-0.865,0.873,-0.865,1.486c0,0.345,0.099,0.651,0.297,0.922C14.477,10.926,14.759,11.138,15.125,11.291zM15.604,9.009c0.222,-0.188,0.441,-0.304,0.85,-0.349v2.043c-0.409,-0.087,-0.705,-0.216,-0.896,-0.387c-0.191,-0.172,-0.3,-0.385,-0.3,-0.639C15.258,9.42,15.382,9.197,15.604,9.009z" fill-rule="evenodd" fill="#FFFFFF"/>
    <g>
      <path d="M10.562,12.3c-4.191,0,-7.641,1.228,-7.641,2.828c0,0.055,0,1.583,0,1.793c0,1.599,3.462,2.953,7.65,2.953s7.571,-1.354,7.571,-2.953c0,-0.255,0,-1.672,0,-1.715C18.142,13.606,14.753,12.3,10.562,12.3zM10.431,17.81c-4.135,0.061,-7.432,-1.146,-7.312,-2.758c0.517,1.199,3.389,2.094,7.018,2.094c3.993,0,7.752,-0.827,7.752,-2.209c0,-0.036,-0.003,-0.072,-0.008,-0.107c0.064,0.137,0.091,0.277,0.098,0.42C18.051,16.771,14.561,17.75,10.431,17.81z" fill-rule="evenodd" fill="#EAB765"/>
      <path d="M17.881,14.83c0.005,0.036,0.008,0.071,0.008,0.107c0,1.382,-3.76,2.209,-7.752,2.209c-3.629,0,-6.501,-0.894,-7.018,-2.094c-0.12,1.612,3.177,2.819,7.312,2.758c4.131,-0.061,7.621,-1.04,7.548,-2.56C17.972,15.107,17.945,14.967,17.881,14.83z" fill-rule="evenodd" fill="#FFFFFF"/>
    </g>
    <g>
      <path d="M18.231,18.399c-0.893,1.086,-4.165,2.136,-7.788,2.136c-2.14,0,-4.075,-0.366,-5.472,-0.889c-0.096,0.181,-0.146,0.368,-0.146,0.561c0,0.055,0,1.583,0,1.793c0,1.599,3.462,2.953,7.65,2.953S20.046,23.6,20.046,22c0,-0.255,0,-1.672,0,-1.715C20.046,19.567,19.363,18.908,18.231,18.399zM12.335,22.889c-4.135,0.061,-7.432,-1.146,-7.312,-2.758c0.517,1.199,3.389,2.094,7.018,2.094c3.993,0,7.752,-0.827,7.752,-2.209c0,-0.036,-0.003,-0.072,-0.008,-0.107c0.064,0.137,0.091,0.277,0.098,0.42C19.956,21.849,16.466,22.828,12.335,22.889z" fill-rule="evenodd" fill="#EAB765"/>
      <path d="M19.883,20.329c-0.007,-0.143,-0.034,-0.283,-0.098,-0.42c0.005,0.036,0.008,0.071,0.008,0.107c0,1.382,-3.76,2.209,-7.752,2.209c-3.629,0,-6.501,-0.894,-7.018,-2.094c-0.12,1.612,3.177,2.819,7.312,2.758C16.466,22.828,19.956,21.849,19.883,20.329z" fill-rule="evenodd" fill="#FFFFFF"/>
    </g>
    <g>
      <path d="M16.22,25.172c-0.07,0.016,-0.14,0.031,-0.211,0.046c0.014,-0.003,0.027,-0.006,0.041,-0.009c0.014,0.066,0.022,0.132,0.025,0.198c0.072,1.52,-3.417,2.499,-7.548,2.56c-4.135,0.061,-7.432,-1.146,-7.312,-2.758c0.517,1.199,3.389,2.094,7.018,2.094c3.865,0,7.512,-0.775,7.741,-2.078c-1.152,0.241,-2.459,0.389,-3.816,0.389c-4.25,0,-7.696,-1.444,-7.707,-2.696c-2.063,0.499,-3.434,1.359,-3.434,2.368c0,0.055,0,1.583,0,1.793c0,1.599,3.462,2.953,7.65,2.953s7.571,-1.354,7.571,-2.953c0,-0.255,0,-1.672,0,-1.715C16.237,25.299,16.231,25.235,16.22,25.172z" fill-rule="evenodd" fill="#EAB765"/>
      <path d="M16.049,25.209c-0.025,0.005,-0.051,0.011,-0.076,0.016c-0.229,1.304,-3.876,2.078,-7.741,2.078c-3.629,0,-6.501,-0.894,-7.018,-2.094c-0.12,1.612,3.177,2.819,7.312,2.758c4.131,-0.061,7.621,-1.04,7.548,-2.56C16.071,25.341,16.063,25.275,16.049,25.209z" fill-rule="evenodd" fill="#FFFFFF"/>
    </g>
  </g>
</svg>
