<?xml version="1.0" encoding="UTF-8"?>
<!DOCTYPE svg PUBLIC "-//W3C//DTD SVG 1.1//EN" "http://www.w3.org/Graphics/SVG/1.1/DTD/svg11.dtd">
<svg version="1.1" id="Layer_1" xmlns="http://www.w3.org/2000/svg" xmlns:xlink="http://www.w3.org/1999/xlink" x="0px" y="0px" width="24px" height="24px" viewBox="0 0 24 24" enable-background="new 0 0 24 24" xml:space="preserve">
  <g id="icon">
    <path d="M23.6,2h-1.6V0.4c0,-0.221,-0.179,-0.4,-0.4,-0.4h-1.2c-0.221,0,-0.4,0.179,-0.4,0.4v1.6H4H2.4c-0.221,0,-0.4,0.179,-0.4,0.4v1.6v16H0.4c-0.221,0,-0.4,0.179,-0.4,0.4v1.2c0,0.221,0.179,0.4,0.4,0.4h1.6v1.6c0,0.221,0.179,0.4,0.4,0.4h1.2c0.221,0,0.4,-0.179,0.4,-0.4v-1.6h16h1.6c0.221,0,0.4,-0.179,0.4,-0.4v-1.6V4h1.6c0.221,0,0.4,-0.179,0.4,-0.4V2.4C24,2.179,23.821,2,23.6,2zM20,20H4V4h16V20z" fill="#666D78"/>
    <path d="M23.6,2h-1.6V0.4c0,-0.221,-0.179,-0.4,-0.4,-0.4h-1.2c-0.221,0,-0.4,0.179,-0.4,0.4v1.6h-2.935L11.97,22H20h1.6c0.221,0,0.4,-0.179,0.4,-0.4v-1.6V4h1.6c0.221,0,0.4,-0.179,0.4,-0.4V2.4C24,2.179,23.821,2,23.6,2z" fill="#231F20" opacity="0.08"/>
    <polygon points="20,20 4,20 4,4 20,4 20,7.2" fill="#FFFFFF" stroke-linejoin="miter"/>
    <rect x="4" y="4" width="16" height="16" fill="#5D9CEC" opacity="0.6"/>
    <path d="M20,16.727l-4.77,-5.239c-0.154,-0.183,-0.469,-0.182,-0.622,0.001l-1.797,2.138l2.168,2.475l-0.275,0.343l-5.546,-6.359c-0.153,-0.182,-0.462,-0.182,-0.615,0l-4.466,5.286c-0.049,0.059,-0.077,0.13,-0.077,0.203V20h16V16.727z" fill="#3E74AE"/>
    <circle cx="15.579" cy="8.179" r="2.316" fill="#FFCE57"/>
    <path d="M4,4v16h16V4H4zM19,19H5V5h14V19z" fill="#FFFFFF" opacity="0.8"/>
  </g>
</svg>
