<?xml version="1.0" encoding="UTF-8"?>
<!DOCTYPE svg PUBLIC "-//W3C//DTD SVG 1.1//EN" "http://www.w3.org/Graphics/SVG/1.1/DTD/svg11.dtd">
<svg version="1.1" id="Layer_1" xmlns="http://www.w3.org/2000/svg" xmlns:xlink="http://www.w3.org/1999/xlink" x="0px" y="0px" width="32px" height="32px" viewBox="0 0 32 32" enable-background="new 0 0 32 32" xml:space="preserve">
  <g id="icon">
    <path d="M1,16.7v-1.4c0,-0.166,0.134,-0.3,0.3,-0.3h4.313c-0.073,0.322,-0.113,0.656,-0.113,1s0.04,0.678,0.113,1H1.3C1.134,17,1,16.866,1,16.7zM13.5,26c0,-0.344,0.04,-0.678,0.113,-1H1.3c-0.166,0,-0.3,0.134,-0.3,0.3v1.4c0,0.166,0.134,0.3,0.3,0.3h12.313C13.54,26.678,13.5,26.344,13.5,26zM1.3,7h16.313c-0.073,-0.322,-0.113,-0.656,-0.113,-1s0.04,-0.678,0.113,-1H1.3c-0.166,0,-0.3,0.134,-0.3,0.3v1.4C1,6.866,1.134,7,1.3,7zM30.7,15H14.387c0.073,0.322,0.113,0.656,0.113,1s-0.04,0.678,-0.113,1H30.7c0.166,0,0.3,-0.134,0.3,-0.3v-1.4C31,15.134,30.866,15,30.7,15zM30.7,5h-4.313c0.073,0.322,0.113,0.656,0.113,1s-0.04,0.678,-0.113,1H30.7c0.166,0,0.3,-0.134,0.3,-0.3V5.3C31,5.134,30.866,5,30.7,5zM30.7,25h-8.313c0.073,0.322,0.113,0.656,0.113,1s-0.04,0.678,-0.113,1H30.7c0.166,0,0.3,-0.134,0.3,-0.3v-1.4C31,25.134,30.866,25,30.7,25z" fill="#6D6E71"/>
    <path d="M18,29.5c-1.93,0,-3.5,-1.57,-3.5,-3.5c0,-1.93,1.57,-3.5,3.5,-3.5s3.5,1.57,3.5,3.5C21.5,27.93,19.93,29.5,18,29.5zM10,19.5c-1.93,0,-3.5,-1.57,-3.5,-3.5s1.57,-3.5,3.5,-3.5s3.5,1.57,3.5,3.5S11.93,19.5,10,19.5zM22,9.5c-1.93,0,-3.5,-1.57,-3.5,-3.5s1.57,-3.5,3.5,-3.5s3.5,1.57,3.5,3.5S23.93,9.5,22,9.5z" fill="#3E79B4"/>
  </g>
</svg>
