<?xml version="1.0" encoding="UTF-8"?>
<!DOCTYPE svg PUBLIC "-//W3C//DTD SVG 1.1//EN" "http://www.w3.org/Graphics/SVG/1.1/DTD/svg11.dtd">
<svg version="1.1" id="Layer_1" xmlns="http://www.w3.org/2000/svg" xmlns:xlink="http://www.w3.org/1999/xlink" x="0px" y="0px" width="24px" height="24px" viewBox="0 0 24 24" enable-background="new 0 0 24 24" xml:space="preserve">
  <g id="icon">
    <circle cx="12" cy="12" r="10.9899" fill="#4FC0E8"/>
    <path d="M19.7711,4.2289c-0.015,-0.015,-0.0305,-0.0295,-0.0456,-0.0444l-15.541,15.541c0.0149,0.0151,0.0294,0.0305,0.0444,0.0456c4.2918,4.2918,11.2503,4.2918,15.5421,0S24.0629,8.5208,19.7711,4.2289z" fill="#3BAEDA"/>
    <path d="M7.7625,11.0714c0.1763,0,0.3284,-0.1174,0.3803,-0.2859c0.1808,-0.5877,0.497,-1.1429,0.9493,-1.6169c0.7792,-0.8168,1.8291,-1.2666,2.9564,-1.2666c0.9627,0,1.8824,0.3344,2.6156,0.9465l-1.616,-0.0089c-0.231,0,-0.4336,0.2116,-0.4336,0.4529v1.0028c0,0.2307,0.1829,0.4047,0.4254,0.4047h4.4891c0.2224,0,0.4713,-0.184,0.4713,-0.4303V5.9239c0,-0.2338,-0.1941,-0.4239,-0.4327,-0.4239h-1.0028c-0.2364,0,-0.4216,0.1862,-0.4216,0.4239v1.7544c-1.1091,-1.0549,-2.5565,-1.634,-4.0929,-1.634c-1.6187,0,-3.1322,0.6396,-4.2616,1.8009c-0.7614,0.7828,-1.2608,1.7341,-1.5,2.7381c-0.0593,0.2489,0.1302,0.4881,0.3861,0.4881H7.7625z" fill="#FFFFFF"/>
    <path d="M16.2375,12.9286c-0.1763,0,-0.3284,0.1174,-0.3803,0.2859c-0.1808,0.5876,-0.497,1.1429,-0.9493,1.6169c-0.7792,0.8168,-1.8291,1.2666,-2.9564,1.2666c-0.9627,0,-1.8824,-0.3344,-2.6156,-0.9465l1.616,0.0089c0.231,0,0.4336,-0.2116,0.4336,-0.4529v-1.0028c0,-0.2307,-0.1829,-0.4047,-0.4254,-0.4047H6.4713c-0.2224,0,-0.4713,0.184,-0.4713,0.4303v4.3457c0,0.2338,0.1941,0.4239,0.4327,0.4239h1.0028c0.2364,0,0.4216,-0.1862,0.4216,-0.4239v-1.7544c1.1091,1.0549,2.5565,1.634,4.0929,1.634c1.6187,0,3.1322,-0.6396,4.2616,-1.8009c0.7614,-0.7828,1.2608,-1.7341,1.5,-2.7381c0.0593,-0.2489,-0.1302,-0.4881,-0.3861,-0.4881H16.2375z" fill="#FFFFFF"/>
  </g>
</svg>
