<svg xmlns="http://www.w3.org/2000/svg" width="1000" height="1000" viewBox="0 0 1000 1000" version="1.1">
	<path d="M 485 143.646 C 481.425 145.025, 477.825 146.740, 477 147.458 C 476.175 148.176, 474.490 149.071, 473.256 149.447 C 472.022 149.823, 470.447 150.664, 469.756 151.316 C 469.065 151.967, 466.925 153.299, 465 154.276 C 463.075 155.253, 457.450 158.258, 452.500 160.955 C 447.550 163.651, 442.150 166.556, 440.500 167.409 C 438.850 168.262, 436.825 169.419, 436 169.980 C 435.175 170.542, 433.375 171.478, 432 172.061 C 430.625 172.644, 427.250 174.424, 424.500 176.016 C 421.750 177.608, 417.925 179.657, 416 180.568 C 414.075 181.479, 412.275 182.519, 412 182.878 C 411.538 183.481, 402.030 188.615, 392.500 193.407 C 390.300 194.513, 387.905 195.999, 387.179 196.709 C 386.452 197.419, 385.059 198, 384.084 198 C 383.108 198, 381.532 198.860, 380.581 199.910 C 379.631 200.961, 377.648 202.119, 376.176 202.484 C 374.704 202.849, 372.600 203.963, 371.500 204.959 C 370.400 205.955, 368.375 207.109, 367 207.523 C 365.625 207.936, 363.427 209.113, 362.115 210.138 C 360.803 211.162, 359.148 212, 358.437 212 C 357.725 212, 356.501 212.642, 355.717 213.426 C 354.933 214.210, 352.763 215.565, 350.896 216.438 C 349.028 217.310, 343.450 220.241, 338.500 222.951 C 333.550 225.660, 327.813 228.629, 325.750 229.547 C 323.688 230.466, 322 231.601, 322 232.070 C 322 232.539, 320.200 233.408, 318 234 C 315.800 234.592, 314 235.441, 314 235.887 C 314 236.332, 312.313 237.454, 310.250 238.379 C 308.188 239.304, 304.359 241.285, 301.742 242.781 C 299.125 244.276, 293.950 247.071, 290.242 248.991 C 286.534 250.912, 282.427 253.274, 281.115 254.241 C 279.803 255.209, 277.961 256, 277.020 256 C 276.080 256, 274.532 256.860, 273.581 257.910 C 272.631 258.961, 270.773 260.091, 269.452 260.423 C 268.132 260.754, 265.402 262.144, 263.386 263.513 C 261.370 264.881, 259.109 266, 258.360 266 C 257.612 266, 257 266.401, 257 266.891 C 257 267.382, 255.313 268.537, 253.250 269.459 C 251.188 270.381, 247.250 272.429, 244.500 274.011 C 241.750 275.593, 238.825 277.170, 238 277.515 C 237.175 277.861, 235.825 278.573, 235 279.097 C 234.175 279.621, 231.700 280.980, 229.500 282.118 C 227.300 283.255, 223.250 285.471, 220.500 287.041 C 217.750 288.612, 213.700 290.825, 211.500 291.961 C 209.300 293.096, 203.900 296.045, 199.500 298.515 C 195.100 300.984, 189.700 303.898, 187.500 304.989 C 185.300 306.081, 182.825 307.358, 182 307.826 C 176.935 310.700, 174.071 312.182, 170.750 313.648 C 168.688 314.558, 167 315.636, 167 316.043 C 167 316.450, 165.312 317.521, 163.250 318.423 C 161.188 319.325, 157.250 321.332, 154.500 322.882 C 151.750 324.431, 146.575 327.212, 143 329.060 C 139.425 330.908, 135.427 333.225, 134.115 334.210 C 132.803 335.194, 130.961 336, 130.020 336 C 129.080 336, 127.532 336.860, 126.581 337.910 C 125.631 338.961, 123.648 340.121, 122.176 340.488 C 120.704 340.855, 118.825 341.749, 118 342.474 C 116.573 343.728, 112.168 346.155, 105.437 349.396 C 99.987 352.020, 94.102 358.739, 90.482 366.470 C 87.608 372.610, 87 375.061, 87 380.516 C 87 387.878, 89.908 395.439, 95.371 402.286 C 98.687 406.440, 106.432 411.996, 108.921 412.006 C 109.790 412.010, 111.850 412.722, 113.500 413.590 C 115.150 414.457, 118.368 415.200, 120.652 415.241 C 125.108 415.319, 138.529 411.496, 141 409.445 C 141.825 408.760, 144.075 407.480, 146 406.601 C 147.925 405.723, 153.100 402.960, 157.500 400.463 C 161.900 397.966, 167.300 395.046, 169.500 393.974 C 173.567 391.993, 175.533 390.864, 180 387.948 C 181.375 387.050, 184.148 385.773, 186.162 385.110 C 188.175 384.446, 190.058 383.292, 190.344 382.546 C 190.630 381.799, 192.240 380.887, 193.921 380.517 C 195.602 380.148, 197.257 379.394, 197.599 378.840 C 197.941 378.287, 200.083 376.968, 202.360 375.908 C 204.637 374.849, 210.100 371.969, 214.500 369.507 C 218.900 367.046, 224.075 364.305, 226 363.417 C 227.925 362.528, 230.175 361.224, 231 360.519 C 231.825 359.814, 233.625 358.902, 235 358.494 C 236.375 358.086, 238.305 356.908, 239.289 355.876 C 240.273 354.844, 241.873 354, 242.845 354 C 243.816 354, 246.136 352.875, 248 351.500 C 249.864 350.125, 251.944 349, 252.623 349 C 253.302 349, 254.499 348.358, 255.283 347.574 C 256.067 346.790, 258.237 345.461, 260.104 344.620 C 261.972 343.779, 267.100 341.048, 271.500 338.551 C 275.900 336.054, 281.300 333.114, 283.500 332.018 C 285.700 330.922, 288.175 329.569, 289 329.012 C 289.825 328.455, 291.625 327.518, 293 326.930 C 294.375 326.342, 297.750 324.549, 300.500 322.946 C 303.250 321.343, 307.300 319.122, 309.500 318.010 C 311.700 316.899, 317.100 313.949, 321.500 311.456 C 325.900 308.963, 331.363 306.077, 333.640 305.044 C 335.917 304.011, 338.059 302.713, 338.401 302.160 C 338.743 301.606, 340.398 300.852, 342.079 300.483 C 343.760 300.113, 345.367 299.206, 345.651 298.467 C 345.935 297.727, 347.484 296.833, 349.094 296.479 C 350.704 296.126, 352.624 295.234, 353.360 294.497 C 354.615 293.242, 356.419 292.218, 366.500 287.038 C 368.700 285.907, 374.100 282.972, 378.500 280.515 C 382.900 278.057, 388.363 275.173, 390.640 274.106 C 392.917 273.039, 395.059 271.713, 395.401 271.160 C 395.743 270.606, 397.321 269.869, 398.908 269.520 C 400.494 269.172, 402.561 268.038, 403.500 267 C 404.439 265.962, 406.511 264.827, 408.104 264.477 C 409.697 264.127, 411 263.518, 411 263.124 C 411 262.729, 414.712 260.479, 419.250 258.123 C 423.788 255.766, 431.100 251.851, 435.500 249.421 C 439.900 246.991, 445.067 244.277, 446.983 243.391 C 448.899 242.504, 451.547 240.928, 452.868 239.889 C 454.189 238.850, 456.039 238, 456.980 238 C 457.920 238, 459.468 237.140, 460.419 236.090 C 461.369 235.039, 463.284 233.894, 464.674 233.546 C 466.064 233.197, 468.393 232.126, 469.850 231.166 C 474.933 227.817, 476.525 226.921, 480.250 225.314 C 482.313 224.425, 484 223.350, 484 222.926 C 484 222.502, 485.688 221.621, 487.750 220.967 C 489.813 220.314, 492.082 219.041, 492.793 218.140 C 493.642 217.063, 495.602 216.500, 498.500 216.500 C 501.398 216.500, 503.358 217.063, 504.207 218.140 C 504.918 219.041, 507.188 220.314, 509.250 220.967 C 511.313 221.621, 513 222.535, 513 223 C 513 223.465, 514.688 224.395, 516.750 225.067 C 518.813 225.740, 520.725 226.598, 521 226.975 C 521.275 227.352, 524.875 229.393, 529 231.509 C 533.125 233.626, 538.750 236.577, 541.500 238.066 C 544.250 239.556, 550.193 242.638, 554.708 244.915 C 559.222 247.191, 563.165 249.457, 563.469 249.950 C 563.774 250.443, 565.321 251.131, 566.908 251.480 C 568.494 251.828, 570.584 252.988, 571.551 254.057 C 572.519 255.126, 574.080 256, 575.020 256 C 575.961 256, 577.803 256.827, 579.115 257.838 C 580.427 258.850, 584.875 261.353, 589 263.401 C 598.219 267.979, 610.978 274.677, 613 276 C 615.186 277.430, 628.817 284.621, 633.640 286.888 C 635.917 287.959, 638.059 289.287, 638.401 289.840 C 638.743 290.394, 640.321 291.131, 641.908 291.480 C 643.494 291.828, 645.584 292.988, 646.551 294.057 C 647.519 295.126, 649.080 296, 650.020 296 C 650.961 296, 652.803 296.838, 654.115 297.862 C 655.427 298.887, 657.625 300.067, 659 300.485 C 660.375 300.903, 662.119 301.742, 662.876 302.349 C 663.633 302.957, 667.908 305.346, 672.376 307.659 C 692.992 318.329, 696.821 320.348, 701.500 323.013 C 704.250 324.579, 707.625 326.342, 709 326.930 C 710.375 327.518, 712.175 328.464, 713 329.033 C 713.825 329.603, 716.188 330.796, 718.250 331.686 C 720.313 332.575, 722 333.650, 722 334.074 C 722 334.498, 723.688 335.387, 725.750 336.049 C 727.813 336.711, 730.175 337.826, 731 338.527 C 731.825 339.228, 734.075 340.520, 736 341.400 C 737.925 342.280, 744.900 345.917, 751.500 349.483 C 758.100 353.049, 765.363 356.837, 767.640 357.901 C 769.917 358.964, 772.059 360.287, 772.401 360.840 C 772.743 361.394, 774.321 362.131, 775.908 362.480 C 777.494 362.828, 779.584 363.988, 780.551 365.057 C 781.519 366.126, 783.053 367, 783.961 367 C 784.869 367, 787.136 368.125, 789 369.500 C 790.864 370.875, 793.131 372, 794.039 372 C 794.947 372, 796.505 372.900, 797.500 374 C 798.495 375.100, 800.080 376, 801.020 376 C 801.961 376, 803.803 376.827, 805.115 377.838 C 806.427 378.850, 810.875 381.344, 815 383.381 C 819.125 385.418, 826.100 389.080, 830.500 391.519 C 838.125 395.746, 842.844 398.248, 849.500 401.595 C 851.150 402.425, 853.175 403.536, 854 404.065 C 854.825 404.593, 857.300 405.935, 859.500 407.047 C 861.700 408.158, 864.625 409.721, 866 410.519 C 867.375 411.317, 869.231 411.977, 870.124 411.985 C 871.018 411.993, 873.647 412.670, 875.967 413.488 C 879.805 414.843, 880.974 414.805, 888.931 413.068 C 897.192 411.265, 902.403 408.739, 906.678 404.466 C 910.762 400.383, 914.002 395.603, 914.034 393.612 C 914.053 392.451, 914.937 389.700, 916 387.500 C 917.063 385.300, 917.947 381.959, 917.966 380.075 C 918.010 375.659, 913.375 362.111, 910.906 359.436 C 909.857 358.300, 909 356.910, 909 356.346 C 909 355.782, 907.875 354.808, 906.500 354.182 C 905.125 353.555, 904 352.632, 904 352.130 C 904 351.628, 902.200 350.497, 900 349.617 C 897.800 348.736, 896 347.598, 896 347.088 C 896 346.577, 894.687 345.871, 893.082 345.518 C 891.477 345.166, 889.144 343.993, 887.898 342.911 C 886.651 341.830, 884.477 340.669, 883.066 340.332 C 881.655 339.994, 879.695 338.882, 878.711 337.859 C 877.727 336.837, 876.072 336, 875.032 336 C 873.993 336, 872.548 335.419, 871.821 334.709 C 871.095 333.998, 866.675 331.493, 862 329.141 C 849.586 322.896, 839.545 317.495, 836.886 315.633 C 835.604 314.735, 833.825 314, 832.932 314 C 832.040 314, 830.519 313.126, 829.551 312.057 C 828.584 310.988, 826.494 309.828, 824.908 309.480 C 823.321 309.131, 821.743 308.394, 821.401 307.840 C 821.059 307.287, 818.917 305.952, 816.640 304.874 C 810.590 302.009, 806.701 300.024, 805 298.935 C 804.175 298.407, 801.637 297.118, 799.360 296.070 C 797.083 295.023, 794.941 293.713, 794.599 293.160 C 794.257 292.606, 792.628 291.857, 790.978 291.495 C 789.329 291.133, 787.422 290.282, 786.740 289.604 C 786.058 288.926, 782.125 286.703, 778 284.664 C 773.875 282.624, 769.825 280.515, 769 279.977 C 768.175 279.439, 766.375 278.522, 765 277.939 C 763.625 277.356, 760.250 275.584, 757.500 274 C 754.750 272.416, 751.375 270.644, 750 270.061 C 748.625 269.478, 746.825 268.542, 746 267.980 C 745.175 267.419, 742.925 266.249, 741 265.380 C 739.075 264.512, 736.825 263.224, 736 262.519 C 735.175 261.814, 733.375 260.902, 732 260.494 C 730.625 260.086, 728.695 258.908, 727.711 257.876 C 726.727 256.844, 725.100 256, 724.096 256 C 723.092 256, 721.197 255.201, 719.885 254.225 C 718.573 253.248, 714.125 250.742, 710 248.654 C 695.235 241.183, 687.483 237.077, 686.423 236.168 C 685.831 235.660, 684.256 234.911, 682.923 234.504 C 681.590 234.097, 679.825 233.188, 679 232.485 C 678.175 231.783, 675.858 230.373, 673.850 229.354 C 671.843 228.334, 666.326 225.538, 661.592 223.141 C 656.857 220.743, 652.743 218.393, 652.450 217.918 C 652.156 217.444, 650.135 216.521, 647.958 215.869 C 645.781 215.217, 644 214.354, 644 213.950 C 644 213.547, 642.089 212.452, 639.753 211.518 C 637.417 210.583, 635.280 209.499, 635.003 209.109 C 634.726 208.718, 629.218 205.722, 622.763 202.449 C 616.307 199.177, 608.882 195.290, 606.263 193.810 C 603.643 192.331, 600.375 190.644, 599 190.061 C 597.625 189.478, 595.825 188.545, 595 187.988 C 594.175 187.431, 591.700 186.086, 589.500 185 C 587.300 183.914, 584.825 182.569, 584 182.012 C 583.175 181.455, 581.375 180.522, 580 179.939 C 578.625 179.356, 575.250 177.584, 572.500 176 C 569.750 174.416, 566.375 172.644, 565 172.061 C 563.625 171.478, 561.825 170.559, 561 170.018 C 560.175 169.477, 555.900 167.219, 551.500 165 C 547.100 162.781, 542.825 160.523, 542 159.982 C 541.175 159.441, 539.375 158.522, 538 157.939 C 536.625 157.356, 533.250 155.584, 530.500 154 C 527.750 152.416, 524.375 150.644, 523 150.061 C 521.625 149.478, 519.825 148.548, 519 147.993 C 518.175 147.439, 516.375 146.494, 515 145.892 C 513.625 145.291, 510.575 143.944, 508.223 142.900 C 502.142 140.198, 493.194 140.486, 485 143.646 M 136.500 483.665 C 135.400 483.968, 134.050 484.558, 133.500 484.977 C 132.950 485.396, 130.812 486.283, 128.749 486.948 C 125.644 487.948, 119 493.127, 119 494.547 C 119 494.764, 117.874 497.403, 116.497 500.413 L 113.994 505.885 114.247 665.193 L 114.500 824.500 141 824.781 C 155.575 824.935, 168.507 824.816, 169.738 824.515 L 171.977 823.968 172.238 784.734 L 172.500 745.500 492.500 745.227 C 668.500 745.077, 813.513 745.198, 814.750 745.496 L 817 746.038 817 784.921 L 817 823.804 820.149 824.902 C 822.153 825.601, 833.747 826, 852.027 826 C 875.135 826, 880.978 825.732, 881.892 824.630 C 882.732 823.618, 882.960 789.545, 882.765 694.380 L 882.500 565.500 880.250 561.539 C 879.012 559.360, 878 557.094, 878 556.504 C 878 554.221, 867.488 545.195, 864 544.483 C 862.075 544.090, 859.942 543.320, 859.260 542.770 C 858.578 542.221, 855.203 541.741, 851.760 541.704 C 843.154 541.611, 832.269 545.132, 827.883 549.427 C 822.640 554.561, 822.071 555.514, 819.620 563.254 C 817.379 570.333, 817.320 571.584, 817.099 617.474 C 816.948 648.730, 816.518 664.876, 815.814 665.724 C 814.960 666.754, 752.789 667, 493.878 667 C 317.395 667, 172.898 666.888, 172.773 666.750 C 172.649 666.612, 172.311 630.275, 172.023 586 L 171.500 505.500 168.572 500.001 C 165.307 493.868, 158.740 487, 156.141 487 C 155.208 487, 153.476 486.321, 152.292 485.492 C 150.023 483.903, 139.897 482.731, 136.500 483.665 M 485 557.951 C 474.275 558.357, 461.900 559.407, 457.500 560.284 C 453.100 561.161, 444.325 562.348, 438 562.923 C 431.675 563.497, 424.700 564.630, 422.500 565.440 C 420.300 566.250, 416.250 566.952, 413.500 567 C 410.750 567.048, 406.700 567.780, 404.500 568.626 C 402.300 569.472, 397.189 570.788, 393.142 571.550 C 389.095 572.311, 385.225 573.399, 384.541 573.966 C 383.857 574.533, 381.094 575.292, 378.399 575.652 C 375.705 576.012, 371.932 577.138, 370.015 578.153 C 368.098 579.169, 365.623 580.004, 364.515 580.009 C 363.407 580.014, 360.250 581.125, 357.500 582.478 C 354.750 583.831, 351.957 584.952, 351.293 584.969 C 349.735 585.009, 330.991 594.748, 328.921 596.593 C 328.053 597.367, 326.672 598, 325.852 598 C 325.032 598, 323.403 599.013, 322.233 600.250 C 321.063 601.487, 317.008 604.975, 313.222 608 C 309.436 611.025, 304.800 615.446, 302.919 617.824 C 301.039 620.202, 298.712 623.083, 297.750 624.227 C 296.788 625.370, 296 626.655, 296 627.082 C 296 627.508, 295.312 628.545, 294.471 629.386 C 291.964 631.893, 288.111 644.848, 289.524 646.020 C 290.296 646.661, 379.216 646.916, 544.605 646.752 L 798.500 646.500 798.241 642.335 C 798 638.444, 794.910 631.396, 790.427 624.510 C 789.367 622.883, 785.125 618.296, 781 614.318 C 771.854 605.497, 771.545 605.234, 765.972 601.515 C 759.043 596.891, 757.771 596.146, 753.750 594.361 C 751.688 593.446, 750 592.350, 750 591.926 C 750 591.502, 748.313 590.613, 746.250 589.951 C 744.188 589.289, 741.825 588.171, 741 587.467 C 740.175 586.762, 737.700 585.705, 735.500 585.118 C 733.300 584.530, 730.577 583.401, 729.449 582.607 C 728.321 581.814, 725.621 580.842, 723.449 580.447 C 721.277 580.053, 717.830 578.890, 715.790 577.865 C 713.749 576.839, 711.049 575.990, 709.790 575.978 C 708.530 575.966, 705.653 575.117, 703.395 574.092 C 701.137 573.066, 696.862 571.901, 693.895 571.503 C 690.928 571.104, 687.007 570.163, 685.182 569.412 C 683.357 568.660, 678.295 567.598, 673.933 567.051 C 669.571 566.504, 663.639 565.405, 660.751 564.610 C 657.863 563.814, 651 562.876, 645.500 562.526 C 640 562.176, 629.359 561.035, 621.853 559.990 C 610.334 558.388, 600.123 558.023, 556.353 557.652 C 527.834 557.410, 495.725 557.544, 485 557.951 M 220.431 559.838 C 218.743 560.890, 216.275 562.095, 214.946 562.517 C 210.351 563.976, 200.945 572.271, 198.479 577.041 C 197.637 578.668, 196.528 580, 196.013 580 C 195.498 580, 194.573 581.872, 193.957 584.160 C 193.341 586.447, 192.106 589.434, 191.213 590.797 C 190.037 592.593, 189.584 595.648, 189.572 601.888 C 189.557 609.010, 190.030 611.667, 192.306 617.243 C 195.204 624.343, 199.320 630.975, 203.186 634.773 C 207.438 638.949, 213.257 643, 215.003 643 C 215.953 643, 217.874 643.900, 219.273 645 C 221.538 646.782, 223.324 646.999, 235.658 646.993 C 247.789 646.988, 249.871 646.741, 252.500 645 C 254.150 643.907, 256.104 643.010, 256.842 643.007 C 259.555 642.993, 274 630.042, 274 627.624 C 274 627.092, 274.784 625.791, 275.743 624.732 C 278.448 621.743, 281.320 611.182, 281.381 604 C 281.448 596.195, 278.859 586.492, 274.786 579.274 C 271.456 573.375, 260.989 563.463, 257.052 562.481 C 255.648 562.131, 253.667 561.092, 252.648 560.172 C 251.146 558.816, 248.218 558.446, 237.148 558.213 C 225.135 557.960, 223.132 558.154, 220.431 559.838" stroke="none" fill="#0A1F44" fill-rule="evenodd"/>
</svg>